<svg width="15" height="14" viewBox="0 0 15 14" fill="none" xmlns="http://www.w3.org/2000/svg">
<path d="M12.625 5.83333C12.625 9.91667 7.375 13.4167 7.375 13.4167C7.375 13.4167 2.125 9.91667 2.125 5.83333C2.125 4.44095 2.67812 3.10559 3.66269 2.12102C4.64726 1.13646 5.98261 0.583333 7.375 0.583333C8.76739 0.583333 10.1027 1.13646 11.0873 2.12102C12.0719 3.10559 12.625 4.44095 12.625 5.83333Z" stroke="white" stroke-linecap="round" stroke-linejoin="round"/>
<path d="M7.375 7.58333C8.3415 7.58333 9.125 6.79983 9.125 5.83333C9.125 4.86684 8.3415 4.08333 7.375 4.08333C6.4085 4.08333 5.625 4.86684 5.625 5.83333C5.625 6.79983 6.4085 7.58333 7.375 7.58333Z" stroke="white" stroke-linecap="round" stroke-linejoin="round"/>
</svg>
