<svg width="23" height="24" viewBox="0 0 23 24" fill="none" xmlns="http://www.w3.org/2000/svg">
<g filter="url(#filter0_d_84_2192)">
<path d="M16.625 11.8333C16.625 15.9167 11.375 19.4167 11.375 19.4167C11.375 19.4167 6.125 15.9167 6.125 11.8333C6.125 10.4409 6.67812 9.10558 7.66269 8.12102C8.64726 7.13645 9.98261 6.58333 11.375 6.58333C12.7674 6.58333 14.1027 7.13645 15.0873 8.12102C16.0719 9.10558 16.625 10.4409 16.625 11.8333Z" fill="url(#paint0_linear_84_2192)"/>
</g>
<path d="M11.375 13.5833C12.3415 13.5833 13.125 12.7998 13.125 11.8333C13.125 10.8668 12.3415 10.0833 11.375 10.0833C10.4085 10.0833 9.625 10.8668 9.625 11.8333C9.625 12.7998 10.4085 13.5833 11.375 13.5833Z" stroke="#00111F" stroke-linecap="round" stroke-linejoin="round"/>
<defs>
<filter id="filter0_d_84_2192" x="0.125" y="0.583328" width="22.5" height="24.8333" filterUnits="userSpaceOnUse" color-interpolation-filters="sRGB">
<feFlood flood-opacity="0" result="BackgroundImageFix"/>
<feColorMatrix in="SourceAlpha" type="matrix" values="0 0 0 0 0 0 0 0 0 0 0 0 0 0 0 0 0 0 127 0" result="hardAlpha"/>
<feOffset/>
<feGaussianBlur stdDeviation="3"/>
<feComposite in2="hardAlpha" operator="out"/>
<feColorMatrix type="matrix" values="0 0 0 0 1 0 0 0 0 0.643137 0 0 0 0 0.0509804 0 0 0 0.8 0"/>
<feBlend mode="normal" in2="BackgroundImageFix" result="effect1_dropShadow_84_2192"/>
<feBlend mode="normal" in="SourceGraphic" in2="effect1_dropShadow_84_2192" result="shape"/>
</filter>
<linearGradient id="paint0_linear_84_2192" x1="11.375" y1="6.58333" x2="11.375" y2="19.4167" gradientUnits="userSpaceOnUse">
<stop stop-color="#FDD37A"/>
<stop offset="1" stop-color="#DE7C00"/>
</linearGradient>
</defs>
</svg>
