<svg width="15" height="14" viewBox="0 0 15 14" fill="none" xmlns="http://www.w3.org/2000/svg">
<path d="M7.125 0.583333C6.66087 0.583333 6.21575 0.767708 5.88756 1.0959C5.55937 1.42409 5.375 1.8692 5.375 2.33333V7C5.375 7.46413 5.55937 7.90925 5.88756 8.23744C6.21575 8.56563 6.66087 8.75 7.125 8.75C7.58913 8.75 8.03425 8.56563 8.36244 8.23744C8.69063 7.90925 8.875 7.46413 8.875 7V2.33333C8.875 1.8692 8.69063 1.42409 8.36244 1.0959C8.03425 0.767708 7.58913 0.583333 7.125 0.583333Z" stroke="white" stroke-linecap="round" stroke-linejoin="round"/>
<path d="M11.2083 5.83333V7C11.2083 8.08297 10.7781 9.12158 10.0123 9.88735C9.24658 10.6531 8.20796 11.0833 7.125 11.0833C6.04203 11.0833 5.00342 10.6531 4.23764 9.88735C3.47187 9.12158 3.04166 8.08297 3.04166 7V5.83333" stroke="white" stroke-linecap="round" stroke-linejoin="round"/>
<path d="M7.125 11.0833V13.4167" stroke="white" stroke-linecap="round" stroke-linejoin="round"/>
<path d="M4.79166 13.4167H9.45833" stroke="white" stroke-linecap="round" stroke-linejoin="round"/>
</svg>
