<svg width="23" height="24" viewBox="0 0 23 24" fill="none" xmlns="http://www.w3.org/2000/svg">
<g filter="url(#filter0_d_84_2160)">
<path d="M8.125 6.58333C7.66087 6.58333 7.21575 6.7677 6.88756 7.09589C6.55937 7.42408 6.375 7.8692 6.375 8.33333V13C6.375 13.4641 6.55937 13.9092 6.88756 14.2374C7.21575 14.5656 7.66087 14.75 8.125 14.75C8.58913 14.75 9.03425 14.5656 9.36244 14.2374C9.69063 13.9092 9.875 13.4641 9.875 13V8.33333C9.875 7.8692 9.69063 7.42408 9.36244 7.09589C9.03425 6.7677 8.58913 6.58333 8.125 6.58333Z" fill="url(#paint0_linear_84_2160)"/>
</g>
<path d="M12.2083 11.8333V13C12.2083 14.083 11.7781 15.1216 11.0123 15.8873C10.2466 16.6531 9.20796 17.0833 8.125 17.0833C7.04203 17.0833 6.00342 16.6531 5.23764 15.8873C4.47187 15.1216 4.04166 14.083 4.04166 13V11.8333" stroke="#FFA40D" stroke-linecap="round" stroke-linejoin="round"/>
<path d="M8.125 17.0833V19.4167" stroke="#FFA40D" stroke-linecap="round" stroke-linejoin="round"/>
<path d="M5.79166 19.4167H10.4583" stroke="#FFA40D" stroke-linecap="round" stroke-linejoin="round"/>
<defs>
<filter id="filter0_d_84_2160" x="0.375" y="0.583328" width="15.5" height="20.1667" filterUnits="userSpaceOnUse" color-interpolation-filters="sRGB">
<feFlood flood-opacity="0" result="BackgroundImageFix"/>
<feColorMatrix in="SourceAlpha" type="matrix" values="0 0 0 0 0 0 0 0 0 0 0 0 0 0 0 0 0 0 127 0" result="hardAlpha"/>
<feOffset/>
<feGaussianBlur stdDeviation="3"/>
<feComposite in2="hardAlpha" operator="out"/>
<feColorMatrix type="matrix" values="0 0 0 0 1 0 0 0 0 0.643137 0 0 0 0 0.0509804 0 0 0 0.8 0"/>
<feBlend mode="normal" in2="BackgroundImageFix" result="effect1_dropShadow_84_2160"/>
<feBlend mode="normal" in="SourceGraphic" in2="effect1_dropShadow_84_2160" result="shape"/>
</filter>
<linearGradient id="paint0_linear_84_2160" x1="8.125" y1="6.58333" x2="8.125" y2="14.75" gradientUnits="userSpaceOnUse">
<stop stop-color="#FDD37A"/>
<stop offset="1" stop-color="#DE7C00"/>
</linearGradient>
</defs>
</svg>
