<svg width="40" height="40" viewBox="0 0 40 40" fill="none" xmlns="http://www.w3.org/2000/svg">
<path d="M38.9415 19.0568H37.6183C37.1075 10.0869 30.1439 3.12332 21.1739 2.61251V1.05854C21.1739 0.473883 20.7001 0 20.1154 0C19.5307 0 19.0569 0.473883 19.0569 1.05854V2.61251C10.0962 3.12332 3.14178 10.0869 2.63097 19.0568H1.05854C0.473883 19.0568 0 19.5307 0 20.1154C0 20.7001 0.473883 21.1739 1.05854 21.1739H2.63097C3.14178 30.1439 10.0962 37.1075 19.0569 37.6183V38.9415C19.0569 39.5261 19.5307 40 20.1154 40C20.7001 40 21.1739 39.5261 21.1739 38.9415V37.6183C30.1439 37.1075 37.1075 30.1439 37.6183 21.1739H38.9415C39.5261 21.1739 40 20.7001 40 20.1154C40 19.5307 39.5261 19.0568 38.9415 19.0568ZM21.177 35.495V30.9439C21.177 30.3593 20.7031 29.8854 20.1185 29.8854C19.5338 29.8854 19.0599 30.3593 19.0599 30.9439V35.495C11.2901 34.9904 5.26194 28.9561 4.76037 21.1739H9.54227C10.1269 21.1739 10.6008 20.7001 10.6008 20.1154C10.6008 19.5307 10.1269 19.0568 9.54227 19.0568H4.76037C5.26502 11.2747 11.2901 5.24348 19.0599 4.73575V9.51765C19.0599 10.1023 19.5338 10.5762 20.1185 10.5762C20.7031 10.5762 21.177 10.1023 21.177 9.51765V4.73575C28.9592 5.2404 34.9904 11.2747 35.4981 19.0568H30.947C30.3623 19.0568 29.8885 19.5307 29.8885 20.1154C29.8885 20.7001 30.3623 21.1739 30.947 21.1739H35.4981C34.9935 28.9561 28.9592 34.9873 21.177 35.495Z" fill="url(#paint0_linear_1072_4685)"/>
<path d="M26.1318 23.9965C26.0456 23.9627 25.9564 23.938 25.8733 23.895C24.6394 23.2303 23.4054 22.5656 22.1715 21.901C22.1561 21.8917 22.1376 21.8825 22.1222 21.8733C22.0422 21.8271 21.9653 21.824 21.8945 21.8887C21.8207 21.9594 21.8207 22.0364 21.8699 22.1256C22.033 22.4272 22.193 22.7287 22.3561 23.0272C22.8761 23.9904 23.3931 24.9504 23.9131 25.9136C24.0332 26.1382 23.9685 26.3936 23.7624 26.5136C23.5531 26.6336 23.3008 26.569 23.1654 26.3475C22.4269 25.1504 21.6884 23.9534 20.9498 22.7595C20.9314 22.7287 20.916 22.6826 20.8883 22.6672C20.8298 22.6303 20.7591 22.5841 20.6975 22.5872C20.6114 22.5872 20.5621 22.6641 20.559 22.7533C20.5529 22.9226 20.5467 23.0918 20.5437 23.2611C20.5098 24.3842 20.479 25.5074 20.4452 26.6306C20.4421 26.7875 20.439 26.9475 20.4298 27.1044C20.4175 27.3445 20.2329 27.5229 19.999 27.5199C19.7621 27.5199 19.5805 27.3445 19.5744 27.1014C19.5497 26.3259 19.5282 25.5536 19.5067 24.7781C19.4882 24.1165 19.4667 23.4549 19.4482 22.7933C19.4482 22.6887 19.4143 22.6056 19.3036 22.581C19.1959 22.5564 19.1374 22.6241 19.0851 22.7041C18.4666 23.7042 17.8481 24.7073 17.2326 25.7074C17.1034 25.9197 16.9711 26.129 16.8418 26.3413C16.7064 26.5598 16.4603 26.6336 16.2479 26.5167C16.0356 26.3998 15.9679 26.1413 16.091 25.9105C16.608 24.9474 17.128 23.9873 17.6481 23.0241C17.805 22.7318 17.9619 22.4425 18.1189 22.1502C18.1681 22.061 18.1927 21.9748 18.1127 21.8917C18.0327 21.8117 17.9465 21.8363 17.8542 21.8856C16.6018 22.5626 15.3463 23.2365 14.0939 23.9104C13.8262 24.055 13.5308 23.9411 13.4508 23.6611C13.3954 23.4672 13.4723 23.2795 13.6631 23.1626C14.1893 22.8364 14.7186 22.5102 15.2479 22.1871C15.7648 21.8671 16.2849 21.5502 16.8018 21.2271C17.0326 21.0824 17.0665 20.7932 16.8603 20.6301C16.7957 20.5778 16.6972 20.5439 16.6141 20.5439C15.7433 20.5132 14.8694 20.4947 13.9985 20.467C13.6293 20.4578 13.2631 20.4424 12.8938 20.4301C12.6415 20.4209 12.46 20.2485 12.46 20.0054C12.46 19.7685 12.6354 19.5777 12.8846 19.5685C13.2416 19.5562 13.5985 19.55 13.9555 19.5377C14.8448 19.51 15.7371 19.4854 16.6264 19.4546C16.8203 19.4485 16.9434 19.3438 16.9834 19.1838C17.0234 19.0115 16.9618 18.873 16.7926 18.7653C15.7494 18.1222 14.7063 17.4791 13.6631 16.8329C13.4077 16.676 13.3585 16.3528 13.5585 16.1498C13.697 16.0082 13.9032 15.9805 14.097 16.0882C14.694 16.4082 15.2879 16.7313 15.8818 17.0514C16.5464 17.4083 17.2111 17.7683 17.8758 18.1253C17.9496 18.1653 18.0235 18.1868 18.085 18.1253C18.125 18.0853 18.1527 18.0207 18.1619 17.9622C18.1681 17.9253 18.1373 17.8791 18.1158 17.8391C17.8142 17.276 17.5096 16.7129 17.208 16.1528C16.8388 15.4635 16.4664 14.7773 16.0972 14.0881C15.9741 13.8603 16.0356 13.608 16.2418 13.488C16.4572 13.3618 16.7034 13.4295 16.8449 13.6573C17.5865 14.8604 18.3281 16.0636 19.0697 17.2668C19.082 17.2883 19.0974 17.3129 19.1128 17.3345C19.162 17.4114 19.2328 17.4391 19.3159 17.4175C19.402 17.3929 19.4451 17.3314 19.4482 17.2421C19.4574 16.9652 19.4667 16.6852 19.4728 16.4082C19.5005 15.4605 19.5282 14.5158 19.559 13.568C19.5651 13.3495 19.5744 13.1341 19.5805 12.9157C19.5867 12.6726 19.7621 12.491 19.9959 12.4818C20.2298 12.4726 20.4298 12.6541 20.439 12.9003C20.4544 13.2418 20.4606 13.5834 20.4698 13.925C20.4975 14.8789 20.5252 15.8328 20.5529 16.7898C20.556 16.9314 20.5621 17.076 20.5652 17.2175C20.5652 17.3191 20.599 17.396 20.7067 17.4206C20.8114 17.4452 20.8729 17.3837 20.9252 17.3006C21.3068 16.6821 21.6884 16.0667 22.0669 15.4482C22.4361 14.8512 22.8054 14.2511 23.1746 13.6542C23.2823 13.4788 23.4516 13.4049 23.6331 13.4419C23.8208 13.4819 23.9624 13.6111 23.9716 13.7988C23.9778 13.9065 23.947 14.0327 23.8947 14.1281C23.4516 14.965 22.9992 15.7959 22.55 16.6298C22.3284 17.0391 22.1099 17.4514 21.8853 17.8607C21.8361 17.9468 21.8176 18.0299 21.8945 18.1068C21.9745 18.1899 22.0576 18.1715 22.1499 18.1191C23.4023 17.4422 24.6578 16.7683 25.9102 16.0913C26.2118 15.9282 26.5318 16.0821 26.5718 16.4082C26.5964 16.599 26.5041 16.7406 26.3441 16.839C25.7133 17.2268 25.0825 17.6176 24.4517 18.0053C24.0332 18.2638 23.6116 18.5222 23.1931 18.7807C23.0454 18.873 22.9869 19.0238 23.0269 19.1777C23.07 19.3438 23.19 19.4423 23.3685 19.4546C23.4823 19.4608 23.5931 19.4669 23.707 19.47C24.8486 19.5039 25.9933 19.5346 27.1349 19.5685C27.3596 19.5746 27.5257 19.7346 27.5504 19.9531C27.575 20.1562 27.4457 20.3532 27.2426 20.4085C27.178 20.427 27.1103 20.4301 27.0426 20.4332C26.3072 20.4547 25.5687 20.4732 24.8332 20.4947C24.347 20.507 23.8639 20.5224 23.3777 20.5378C23.1992 20.5439 23.07 20.6486 23.0269 20.8178C22.9838 20.9747 23.0515 21.1255 23.2146 21.2271C24.2578 21.8702 25.3009 22.5133 26.3441 23.1564C26.5287 23.2703 26.6087 23.4395 26.5657 23.6303C26.5226 23.8334 26.3533 23.9688 26.1379 23.9904L26.1318 23.9965Z" fill="url(#paint1_linear_1072_4685)"/>
<defs>
<linearGradient id="paint0_linear_1072_4685" x1="20" y1="0" x2="20" y2="40" gradientUnits="userSpaceOnUse">
<stop stop-color="#C1A0E8"/>
<stop offset="1" stop-color="#8345BA"/>
</linearGradient>
<linearGradient id="paint1_linear_1072_4685" x1="20.0067" y1="12.4814" x2="20.0067" y2="27.5199" gradientUnits="userSpaceOnUse">
<stop stop-color="#C1A0E8"/>
<stop offset="1" stop-color="#8345BA"/>
</linearGradient>
</defs>
</svg>
