<svg width="43" height="40" viewBox="0 0 43 40" fill="none" xmlns="http://www.w3.org/2000/svg">
<mask id="path-1-inside-1_1072_4688" fill="white">
<path d="M26.8714 14.5508C30.8991 14.5508 34.1637 11.2923 34.1637 7.27385C34.1637 3.25538 30.8991 0 26.8714 0C22.8437 0 19.5791 3.25846 19.5791 7.27692C19.5791 11.2954 22.8437 14.5538 26.8714 14.5538"/>
</mask>
<path d="M26.8714 16.5508C31.9998 16.5508 36.1637 12.4007 36.1637 7.27385H32.1637C32.1637 10.1839 29.7984 12.5508 26.8714 12.5508V16.5508ZM36.1637 7.27385C36.1637 2.14586 31.9987 -2 26.8714 -2V2C29.7995 2 32.1637 4.3649 32.1637 7.27385H36.1637ZM26.8714 -2C21.743 -2 17.5791 2.15004 17.5791 7.27692H21.5791C21.5791 4.36688 23.9444 2 26.8714 2V-2ZM17.5791 7.27692C17.5791 12.4038 21.743 16.5538 26.8714 16.5538V12.5538C23.9444 12.5538 21.5791 10.187 21.5791 7.27692H17.5791Z" fill="url(#paint0_linear_1072_4688)" mask="url(#path-1-inside-1_1072_4688)"/>
<mask id="path-3-inside-2_1072_4688" fill="white">
<path d="M4.12615 28.1104H1.53231C0.686157 28.1104 0 28.7965 0 29.6365V39.9996H5.65847V29.6365C5.65847 28.7934 4.97231 28.1104 4.12308 28.1104"/>
</mask>
<path d="M0 39.9996H-2V41.9996H0V39.9996ZM5.65847 39.9996V41.9996H7.65847V39.9996H5.65847ZM4.12615 26.1104H1.53231V30.1104H4.12615V26.1104ZM1.53231 26.1104C-0.413165 26.1104 -2 27.6867 -2 29.6365H2C2 29.9063 1.78548 30.1104 1.53231 30.1104V26.1104ZM-2 29.6365V39.9996H2V29.6365H-2ZM0 41.9996H5.65847V37.9996H0V41.9996ZM7.65847 39.9996V29.6365H3.65847V39.9996H7.65847ZM7.65847 29.6365C7.65847 27.6784 6.0664 26.1104 4.12308 26.1104V30.1104C3.87823 30.1104 3.65847 29.9085 3.65847 29.6365H7.65847Z" fill="url(#paint1_linear_1072_4688)" mask="url(#path-3-inside-2_1072_4688)"/>
<path d="M15.4893 31.0769C15.4893 30.7918 15.7251 30.5508 16.0216 30.5508H18.6154C18.9132 30.5508 19.1477 30.7901 19.1477 31.0769V38.9969H15.4893V31.0769Z" stroke="url(#paint2_linear_1072_4688)" stroke-width="2"/>
<path d="M8.24609 19.0799C8.24609 18.7948 8.48191 18.5537 8.7784 18.5537H11.3722C11.67 18.5537 11.9046 18.793 11.9046 19.0799V38.9999H8.24609V19.0799Z" stroke="url(#paint3_linear_1072_4688)" stroke-width="2"/>
<mask id="path-7-inside-3_1072_4688" fill="white">
<path d="M25.8586 21.4766H23.2647C22.4186 21.4766 21.7324 22.1627 21.7324 23.0027V39.9996H27.3909V23.0027C27.3909 22.1596 26.7047 21.4766 25.8555 21.4766"/>
</mask>
<path d="M21.7324 39.9996H19.7324V41.9996H21.7324V39.9996ZM27.3909 39.9996V41.9996H29.3909V39.9996H27.3909ZM25.8586 19.4766H23.2647V23.4766H25.8586V19.4766ZM23.2647 19.4766C21.3193 19.4766 19.7324 21.0529 19.7324 23.0027H23.7324C23.7324 23.2725 23.5179 23.4766 23.2647 23.4766V19.4766ZM19.7324 23.0027V39.9996H23.7324V23.0027H19.7324ZM21.7324 41.9996H27.3909V37.9996H21.7324V41.9996ZM29.3909 39.9996V23.0027H25.3909V39.9996H29.3909ZM29.3909 23.0027C29.3909 21.0446 27.7988 19.4766 25.8555 19.4766V23.4766C25.6107 23.4766 25.3909 23.2747 25.3909 23.0027H29.3909Z" fill="url(#paint4_linear_1072_4688)" mask="url(#path-7-inside-3_1072_4688)"/>
<mask id="path-9-inside-4_1072_4688" fill="white">
<path d="M39.4336 18.9625L39.2859 18.6486C38.1536 16.2763 35.4859 14.624 32.5413 14.624C31.2152 16.1656 29.1629 17.1348 26.889 17.1348H26.8552C24.5813 17.1348 22.5321 16.1686 21.2029 14.624C18.2613 14.624 15.5906 16.2763 14.4582 18.6486L14.3105 18.9625C14.3136 19.0179 14.3259 19.0702 14.3259 19.1286V28.7286C14.809 28.3871 15.3936 28.1809 16.0275 28.1809H18.6182C19.2521 28.1809 19.8367 28.3871 20.3198 28.7286V23.0548C20.3198 21.4302 21.6429 20.1102 23.2705 20.1102H25.8644C27.4921 20.1102 28.8182 21.4302 28.8182 23.0548V38.624H41.2059C41.8829 36.2025 42.2459 33.6486 42.2459 31.064C42.2459 26.7471 41.2398 22.6486 39.4367 18.9686"/>
</mask>
<path d="M39.2859 18.6486L41.0956 17.7971L41.0909 17.7871L39.2859 18.6486ZM32.5413 14.624V12.624H31.6236L31.0252 13.3197L32.5413 14.624ZM21.2029 14.624L22.7188 13.3195L22.1203 12.624H21.2029V14.624ZM14.4582 18.6486L12.6533 17.7871L12.6486 17.797L14.4582 18.6486ZM14.3105 18.9625L12.5009 18.1109L12.2856 18.5685L12.3136 19.0734L14.3105 18.9625ZM14.3259 28.7286H12.3259V32.592L15.4805 30.3617L14.3259 28.7286ZM20.3198 28.7286L19.1652 30.3617L22.3198 32.592V28.7286H20.3198ZM28.8182 38.624H26.8182V40.624H28.8182V38.624ZM41.2059 38.624V40.624H42.7235L43.1321 39.1625L41.2059 38.624ZM41.2433 18.1109L41.0956 17.7971L37.4763 19.5002L37.624 19.8141L41.2433 18.1109ZM41.0909 17.7871C39.5998 14.6632 36.1926 12.624 32.5413 12.624V16.624C34.7793 16.624 36.7074 17.8895 37.481 19.5101L41.0909 17.7871ZM31.0252 13.3197C30.0902 14.4065 28.5978 15.1348 26.889 15.1348V19.1348C29.7279 19.1348 32.3401 17.9246 34.0575 15.9283L31.0252 13.3197ZM26.889 15.1348H26.8552V19.1348H26.889V15.1348ZM26.8552 15.1348C25.146 15.1348 23.6566 14.4092 22.7188 13.3195L19.6869 15.9286C21.4075 17.928 24.0167 19.1348 26.8552 19.1348V15.1348ZM21.2029 12.624C17.5551 12.624 14.1445 14.6628 12.6533 17.7871L16.2632 19.5101C17.0366 17.8899 18.9675 16.624 21.2029 16.624V12.624ZM12.6486 17.797L12.5009 18.1109L16.1202 19.8141L16.2679 19.5002L12.6486 17.797ZM12.3136 19.0734C12.3175 19.1423 12.3235 19.1995 12.3277 19.2353C12.3298 19.2533 12.3318 19.2689 12.333 19.2784C12.3336 19.283 12.3342 19.2879 12.3346 19.2904C12.335 19.2935 12.3352 19.295 12.3353 19.296C12.336 19.3015 12.3336 19.2837 12.3313 19.2571C12.3289 19.2286 12.3259 19.1841 12.3259 19.1286H16.3259C16.3259 18.9656 16.3086 18.8327 16.3035 18.7928C16.3028 18.787 16.3021 18.7817 16.3016 18.778C16.301 18.7736 16.3008 18.7718 16.3005 18.7696C16.3 18.7655 16.3003 18.7674 16.3008 18.7719C16.3018 18.7805 16.3052 18.8103 16.3075 18.8515L12.3136 19.0734ZM12.3259 19.1286V28.7286H16.3259V19.1286H12.3259ZM15.4805 30.3617C15.6511 30.2411 15.8369 30.1809 16.0275 30.1809V26.1809C14.9503 26.1809 13.967 26.5331 13.1713 27.0956L15.4805 30.3617ZM16.0275 30.1809H18.6182V26.1809H16.0275V30.1809ZM18.6182 30.1809C18.8088 30.1809 18.9947 30.2411 19.1652 30.3617L21.4744 27.0956C20.6787 26.5331 19.6954 26.1809 18.6182 26.1809V30.1809ZM22.3198 28.7286V23.0548H18.3198V28.7286H22.3198ZM22.3198 23.0548C22.3198 22.5388 22.7433 22.1102 23.2705 22.1102V18.1102C20.5424 18.1102 18.3198 20.3215 18.3198 23.0548H22.3198ZM23.2705 22.1102H25.8644V18.1102H23.2705V22.1102ZM25.8644 22.1102C26.3943 22.1102 26.8182 22.5415 26.8182 23.0548H30.8182C30.8182 20.3188 28.5899 18.1102 25.8644 18.1102V22.1102ZM26.8182 23.0548V38.624H30.8182V23.0548H26.8182ZM28.8182 40.624H41.2059V36.624H28.8182V40.624ZM43.1321 39.1625C43.8569 36.5697 44.2459 33.8348 44.2459 31.064H40.2459C40.2459 33.4625 39.9088 35.8353 39.2798 38.0856L43.1321 39.1625ZM44.2459 31.064C44.2459 26.4323 43.1656 22.0337 41.2327 18.0887L37.6407 19.8486C39.3139 23.2636 40.2459 27.0619 40.2459 31.064H44.2459Z" fill="url(#paint5_linear_1072_4688)" mask="url(#path-9-inside-4_1072_4688)"/>
<defs>
<linearGradient id="paint0_linear_1072_4688" x1="26.8714" y1="0" x2="26.8714" y2="14.5538" gradientUnits="userSpaceOnUse">
<stop stop-color="#C1A0E8"/>
<stop offset="1" stop-color="#8345BA"/>
</linearGradient>
<linearGradient id="paint1_linear_1072_4688" x1="2.82923" y1="28.1104" x2="2.82923" y2="39.9996" gradientUnits="userSpaceOnUse">
<stop stop-color="#C1A0E8"/>
<stop offset="1" stop-color="#8345BA"/>
</linearGradient>
<linearGradient id="paint2_linear_1072_4688" x1="17.3185" y1="29.5508" x2="17.3185" y2="39.9969" gradientUnits="userSpaceOnUse">
<stop stop-color="#C1A0E8"/>
<stop offset="1" stop-color="#8345BA"/>
</linearGradient>
<linearGradient id="paint3_linear_1072_4688" x1="10.0753" y1="17.5537" x2="10.0753" y2="39.9999" gradientUnits="userSpaceOnUse">
<stop stop-color="#C1A0E8"/>
<stop offset="1" stop-color="#8345BA"/>
</linearGradient>
<linearGradient id="paint4_linear_1072_4688" x1="24.5617" y1="21.4766" x2="24.5617" y2="39.9996" gradientUnits="userSpaceOnUse">
<stop stop-color="#C1A0E8"/>
<stop offset="1" stop-color="#8345BA"/>
</linearGradient>
<linearGradient id="paint5_linear_1072_4688" x1="28.2782" y1="14.624" x2="28.2782" y2="38.624" gradientUnits="userSpaceOnUse">
<stop stop-color="#C1A0E8"/>
<stop offset="1" stop-color="#8345BA"/>
</linearGradient>
</defs>
</svg>
