<svg width="40" height="40" viewBox="0 0 40 40" fill="none" xmlns="http://www.w3.org/2000/svg">
<path d="M22.4318 7.79217C22.4318 11.2477 19.3641 14.3166 15.8859 14.3166C12.1611 14.3166 9.11523 11.2292 9.11523 7.79217C9.11523 4.06496 12.1838 1 15.8859 1C19.3444 1 22.4318 4.04589 22.4318 7.79217Z" stroke="url(#paint0_linear_1072_4695)" stroke-width="2"/>
<path d="M39.1209 27.7163C39.1332 27.7825 39.1463 27.8486 39.1594 27.9148C39.1724 27.981 39.1855 28.0471 39.1978 28.1133C39.5702 30.0152 39.8718 31.5816 39.8718 31.6401C39.9241 31.7293 39.9334 31.8217 39.9241 31.9109L39.1209 27.7163ZM39.1209 27.7163C39.1147 27.6825 39.1078 27.6486 39.1009 27.6148M39.1209 27.7163L39.1009 27.6148M39.1009 27.6148C39.094 27.5809 39.0871 27.5471 39.0809 27.5132L39.1009 27.6148ZM38.8355 31.5133C38.8517 31.6014 38.8638 31.6686 38.8718 31.7147V31.748H38.4842L38.4811 31.7511H34.874V32.5781L34.8617 32.5775V31.7511H22.7086V31.7181C22.7091 31.715 22.7097 31.7118 22.7103 31.7084C22.7202 31.6516 22.7355 31.568 22.7559 31.4587C22.7965 31.241 22.8555 30.9324 22.9283 30.5566C23.0738 29.8056 23.2731 28.7923 23.4879 27.7135C23.9185 25.5511 24.4078 23.1431 24.6511 22.0531L24.6566 22.0283L24.6608 22.0033C24.8094 21.1321 25.0316 20.3756 25.3169 19.7263L25.3175 19.7249C25.6027 19.0729 25.9502 18.5294 26.3504 18.0857L26.351 18.085C26.4713 17.9513 26.5878 17.8329 26.7067 17.7261L26.7067 17.7262L26.712 17.7213C27.0835 17.3829 27.5008 17.1077 27.9676 16.8948L27.9698 16.8938C28.1287 16.8209 28.2873 16.7571 28.4518 16.7014C28.7986 16.584 29.1602 16.4937 29.5461 16.4351L29.5461 16.4351L29.5538 16.4339C29.938 16.3725 30.3525 16.3418 30.7994 16.3418C32.5645 16.3418 33.9006 16.8328 34.8769 17.7176C35.0058 17.8361 35.124 17.9546 35.2386 18.0819L35.2398 18.0832C35.527 18.4013 35.784 18.7663 36.0142 19.1892C36.4266 19.95 36.7411 20.8826 36.9355 22.0004L36.9399 22.0259L36.9457 22.0511C37.0036 22.3054 37.0724 22.6337 37.1547 23.0256C37.1692 23.0949 37.1842 23.1662 37.1996 23.2394C37.2031 23.2572 37.2068 23.2756 37.2106 23.2946C37.2278 23.3812 37.2472 23.4791 37.2685 23.5779C37.2764 23.6159 37.2844 23.6542 37.2924 23.6928C37.3563 24.0009 37.4236 24.3258 37.491 24.6626L37.4909 24.6626L37.4938 24.676C37.5099 24.7515 37.521 24.807 37.5332 24.8681C37.5436 24.9199 37.5548 24.9758 37.5705 25.0514C37.5923 25.1677 37.6163 25.2844 37.6385 25.3926C37.6424 25.4114 37.6462 25.4299 37.6499 25.4481C37.6577 25.4902 37.6659 25.5301 37.6719 25.5594C37.6792 25.5951 37.6839 25.6182 37.6877 25.6394L37.6897 25.6502L37.6919 25.6609C37.7055 25.7274 37.7191 25.7947 37.733 25.8634L37.733 25.8637C37.7462 25.9286 37.7595 25.9947 37.7729 26.0603C37.7801 26.0989 37.7876 26.1364 37.7935 26.1661L37.7941 26.1691C37.8014 26.2053 37.8065 26.2312 37.8108 26.2549L37.8124 26.2635L37.8141 26.2721C37.8282 26.3426 37.8423 26.4122 37.8561 26.4805C37.8698 26.5481 37.8832 26.6146 37.8966 26.6816C37.9172 26.7874 37.9384 26.8927 37.9588 26.994L37.959 26.9952C37.9799 27.0989 38 27.1985 38.0192 27.2975L38.0191 27.2975L38.0212 27.3074C38.0337 27.3688 38.0458 27.4312 38.059 27.4998C38.0714 27.5636 38.0848 27.6331 38.0991 27.7036C38.1067 27.7442 38.1146 27.7828 38.1205 27.8118L38.1212 27.8151C38.1285 27.8508 38.1332 27.8739 38.137 27.8952L38.1378 27.8992C38.1511 27.9708 38.165 28.0414 38.1778 28.1059L38.1784 28.1087C38.1916 28.1758 38.2036 28.2365 38.2147 28.2962L38.2147 28.2962L38.2165 28.3055C38.4025 29.2558 38.5707 30.1214 38.6923 30.7561C38.7532 31.0738 38.802 31.3318 38.8355 31.5133Z" stroke="url(#paint1_linear_1072_4695)" stroke-width="2"/>
<path d="M31.2635 35.2061C31.1149 35.2599 30.9582 35.2895 30.7998 35.2895C30.6389 35.2895 30.4807 35.2599 30.3313 35.2061H31.2635Z" stroke="url(#paint2_linear_1072_4695)" stroke-width="2"/>
<path d="M22.2205 16.2508C21.866 16.7807 21.5547 17.3521 21.2885 17.9578L21.2881 17.9586C20.8611 18.9327 20.5427 20.0158 20.3395 21.1759C20.0184 22.6286 19.3909 25.7663 19.1856 26.7926L19.1738 26.8517L19.1736 26.8527C18.7138 29.1638 18.4994 30.2528 18.4025 30.8106C18.2716 31.2826 18.2275 31.7828 18.2835 32.2826C18.3039 32.4669 18.3367 32.6463 18.381 32.8237L18.382 32.8275C18.4423 33.0648 18.521 33.2905 18.6167 33.5187L18.6203 33.5272L18.624 33.5356C18.6687 33.6369 18.7106 33.7275 18.7454 33.8008L18.7521 33.8177L18.7667 33.8481L18.9545 34.2389L19.0327 34.4018L19.163 34.5271L19.4761 34.8279L22.2205 16.2508ZM22.2205 16.2508C22.1605 16.2466 22.1002 16.2431 22.0396 16.2404C21.7407 16.5456 21.4094 16.8233 21.0529 17.0721L21.0464 17.0766L21.0399 17.081C19.5861 18.0618 17.845 18.6264 15.8311 18.64L15.8176 18.6401V18.64C13.8025 18.6263 12.0623 18.0581 10.6103 17.0819L10.603 17.0771L10.5959 17.0721C10.2418 16.825 9.90872 16.5477 9.60854 16.2412C9.43335 16.2495 9.25791 16.2645 9.08261 16.2851L9.07358 16.2881L8.99145 16.2963L8.96218 16.3C8.95535 16.3011 8.94685 16.3024 8.93793 16.3036C8.92612 16.3053 8.91173 16.3073 8.89535 16.3092C7.63755 16.4796 6.53447 16.9178 5.67468 17.5423V17.6002L5.30756 17.9003C4.69702 18.3993 4.2052 18.9756 3.85686 19.5862L3.63115 20.0576C1.96286 23.6514 1 27.7376 1 32.0456C1 34.4752 1.19414 36.6631 1.76927 39.0009H28.0546C26.8887 38.3789 25.9453 37.3744 25.4108 36.1477H22.6964C22.0365 36.1477 21.4029 36.015 20.8129 35.7479L20.811 35.747C20.3209 35.5239 19.8836 35.2201 19.4769 34.8287L22.2205 16.2508Z" stroke="url(#paint3_linear_1072_4695)" stroke-width="2"/>
<defs>
<linearGradient id="paint0_linear_1072_4695" x1="15.7735" y1="0" x2="15.7735" y2="15.3166" gradientUnits="userSpaceOnUse">
<stop stop-color="#C1A0E8"/>
<stop offset="1" stop-color="#8345BA"/>
</linearGradient>
<linearGradient id="paint1_linear_1072_4695" x1="30.7932" y1="15.3418" x2="30.7932" y2="32.7511" gradientUnits="userSpaceOnUse">
<stop stop-color="#C1A0E8"/>
<stop offset="1" stop-color="#8345BA"/>
</linearGradient>
<linearGradient id="paint2_linear_1072_4695" x1="30.7998" y1="34.2061" x2="30.7998" y2="36.2895" gradientUnits="userSpaceOnUse">
<stop stop-color="#C1A0E8"/>
<stop offset="1" stop-color="#8345BA"/>
</linearGradient>
<linearGradient id="paint3_linear_1072_4695" x1="15.4935" y1="15.2334" x2="15.4935" y2="40.0009" gradientUnits="userSpaceOnUse">
<stop stop-color="#C1A0E8"/>
<stop offset="1" stop-color="#8345BA"/>
</linearGradient>
</defs>
</svg>
