<svg width="56" height="28" viewBox="0 0 56 28" fill="none" xmlns="http://www.w3.org/2000/svg">
<path d="M32.7055 5.29785C29.2934 5.29785 26.5264 8.06489 26.5264 11.477C26.5264 14.8892 29.2934 17.6562 32.7055 17.6562C36.1177 17.6562 38.8847 14.8892 38.8847 11.477C38.8847 8.06489 36.1177 5.29785 32.7055 5.29785ZM35.7444 10.6453C35.148 10.6453 34.6652 10.1625 34.6652 9.56608C34.6652 8.96966 35.148 8.48685 35.7444 8.48685C36.3408 8.48685 36.8236 8.96966 36.8236 9.56608C36.8236 10.1625 36.3408 10.6453 35.7444 10.6453Z" fill="url(#paint0_linear_1072_4706)"/>
<path d="M50.3215 12.7966C48.9177 12.7966 47.9075 12.3624 47.8223 12.3259L49.0678 9.51019L49.0516 9.50208C49.2748 9.5954 51.3034 10.35 53.1129 8.38228C53.689 7.75747 54.6628 7.71284 55.2876 8.28897C55.9124 8.8651 55.957 9.83883 55.3809 10.4636C53.6688 12.33 51.7821 12.7966 50.3215 12.7966Z" fill="url(#paint1_linear_1072_4706)"/>
<path d="M46.1186 10.2163C44.8731 10.2163 44.0048 9.91198 43.9277 9.88358L44.9786 6.9867H44.9623C45.2179 7.06785 47.5022 7.74946 49.4943 5.52609C50.0623 4.89316 51.036 4.84043 51.669 5.40844C52.3019 5.97645 52.3546 6.95019 51.7866 7.58312C49.8635 9.7294 47.6929 10.2163 46.1186 10.2163Z" fill="url(#paint2_linear_1072_4706)"/>
<path d="M41.0957 8.12274C40.0692 8.12274 39.1564 7.91582 38.5234 7.66427L39.6595 4.79986H39.6473C39.9556 4.91346 42.7308 5.85879 44.5606 3.10798C45.0313 2.39797 45.9888 2.20728 46.6947 2.67792C47.4007 3.14856 47.5954 4.10607 47.1248 4.81203C45.4167 7.38026 43.0432 8.11868 41.0957 8.11868V8.12274Z" fill="url(#paint3_linear_1072_4706)"/>
<path d="M51.052 11.0036C50.7194 10.7074 42.7956 3.76953 32.8188 3.76953C30.6725 3.76953 28.6236 4.09006 26.7248 4.59721L26.6477 7.83488C28.5587 7.24253 30.6441 6.84898 32.8188 6.84898C39.2698 6.84898 44.9378 10.2976 47.5223 12.1518C44.9378 14.01 39.2698 17.4546 32.8188 17.4546C30.5021 17.4546 28.2828 17.0083 26.2745 16.351C26.1325 17.2071 25.8972 18.2377 25.5117 19.3534C27.7432 20.0594 30.21 20.5341 32.8188 20.5341C42.7956 20.5341 50.7194 13.5962 51.052 13.3L52.3504 12.1477L51.052 10.9955V11.0036Z" fill="url(#paint4_linear_1072_4706)"/>
<path d="M12.0541 3.28637L20.984 6.59302L20.8096 13.9407V13.9731V14.0381C20.8096 14.2774 20.6879 18.501 17.6896 21.4993C16.7442 22.4447 15.5473 23.3616 14.4073 24.0148C13.1536 24.7329 12.3421 24.9236 12.0581 24.9236C11.7741 24.9236 10.9586 24.7329 9.70898 24.0148C8.56889 23.3616 7.37201 22.4447 6.42667 21.4993C3.43243 18.5051 3.31071 14.2977 3.30665 14.0381V14.0137V13.9407L3.13219 6.59302L12.0622 3.28637M12.0622 0L0 4.46703L0.227205 14.0137C0.227205 14.0137 0.166347 19.5924 4.25199 23.674C6.51593 25.9379 9.86721 27.999 12.0622 27.999C14.2571 27.999 17.6084 25.9379 19.8724 23.674C23.9539 19.5924 23.8971 14.0137 23.8971 14.0137L24.1244 4.46703L12.0622 0Z" fill="url(#paint5_linear_1072_4706)"/>
<defs>
<linearGradient id="paint0_linear_1072_4706" x1="32.7055" y1="5.29785" x2="32.7055" y2="17.6562" gradientUnits="userSpaceOnUse">
<stop stop-color="#C1A0E8"/>
<stop offset="1" stop-color="#8345BA"/>
</linearGradient>
<linearGradient id="paint1_linear_1072_4706" x1="51.8042" y1="7.88379" x2="51.8042" y2="12.7966" gradientUnits="userSpaceOnUse">
<stop stop-color="#C1A0E8"/>
<stop offset="1" stop-color="#8345BA"/>
</linearGradient>
<linearGradient id="paint2_linear_1072_4706" x1="48.0541" y1="5.01465" x2="48.0541" y2="10.2163" gradientUnits="userSpaceOnUse">
<stop stop-color="#C1A0E8"/>
<stop offset="1" stop-color="#8345BA"/>
</linearGradient>
<linearGradient id="paint3_linear_1072_4706" x1="42.9526" y1="2.41992" x2="42.9526" y2="8.12274" gradientUnits="userSpaceOnUse">
<stop stop-color="#C1A0E8"/>
<stop offset="1" stop-color="#8345BA"/>
</linearGradient>
<linearGradient id="paint4_linear_1072_4706" x1="38.931" y1="3.76953" x2="38.931" y2="20.5341" gradientUnits="userSpaceOnUse">
<stop stop-color="#C1A0E8"/>
<stop offset="1" stop-color="#8345BA"/>
</linearGradient>
<linearGradient id="paint5_linear_1072_4706" x1="12.0622" y1="0" x2="12.0622" y2="27.999" gradientUnits="userSpaceOnUse">
<stop stop-color="#C1A0E8"/>
<stop offset="1" stop-color="#8345BA"/>
</linearGradient>
</defs>
</svg>
