<svg width="33" height="39" viewBox="0 0 33 39" fill="none" xmlns="http://www.w3.org/2000/svg">
<path d="M21.7157 17.8854C21.535 17.8854 21.3602 17.9032 21.1884 17.9388V16.665C21.1884 15.1632 19.9976 13.9398 18.5343 13.9398C18.3447 13.9398 18.1581 13.9605 17.9774 13.9991C17.7849 12.6898 16.6829 11.6826 15.3529 11.6826C14.0229 11.6826 12.921 12.6898 12.7284 13.9991C12.5477 13.9605 12.3611 13.9398 12.1715 13.9398C10.7082 13.9398 9.51741 15.1632 9.51741 16.665V23.7298C9.15899 23.1226 8.59322 22.6931 7.92376 22.5153C7.23653 22.3317 6.52264 22.4324 5.90947 22.8027C4.66831 23.5521 4.23583 25.2109 4.94379 26.4936L9.45224 34.7788C9.73957 35.2972 10.0891 35.783 10.489 36.2155C10.4949 36.2214 10.4979 36.2273 10.5038 36.2303L10.649 36.3813C11.7657 37.7321 13.3831 38.5052 15.0982 38.5052H18.484C18.5521 38.5052 18.6173 38.5082 18.6854 38.5082C21.849 38.5082 24.2217 36.0022 24.3639 32.4683C24.3639 32.4535 24.3639 32.4387 24.3639 32.4268V20.6136C24.3639 19.1118 23.1731 17.8884 21.7098 17.8884L21.7157 17.8854ZM22.243 32.4031C22.1393 34.767 20.6878 36.3843 18.6854 36.3843C18.641 36.3843 18.5936 36.3843 18.5491 36.3843C18.5373 36.3843 18.5225 36.3843 18.5106 36.3843H15.1071C14.0199 36.3843 12.9861 35.8837 12.2752 35.0098C12.2574 34.9861 12.2367 34.9654 12.216 34.9447L12.0501 34.7699C11.7687 34.4648 11.5228 34.1242 11.3243 33.7628L6.8159 25.4775C6.65298 25.1813 6.7448 24.7933 7.01732 24.6303C7.16247 24.5444 7.29577 24.5533 7.38168 24.577C7.51497 24.6126 7.6305 24.7074 7.70455 24.8377L9.64775 28.4782C9.64775 28.4782 9.64775 28.4812 9.65071 28.4841C9.66552 28.5108 9.68034 28.5375 9.69811 28.5612C9.70699 28.573 9.71292 28.5849 9.7218 28.5937C9.73365 28.6086 9.74254 28.6234 9.75439 28.6382C9.76328 28.65 9.77217 28.6619 9.78401 28.6737C9.79586 28.6856 9.80771 28.7004 9.81956 28.7122C9.82845 28.7241 9.84029 28.733 9.85214 28.7448C9.86399 28.7567 9.8788 28.7685 9.89361 28.7804C9.90546 28.7893 9.91434 28.7981 9.92619 28.807C9.941 28.8189 9.95878 28.8307 9.97655 28.8426C9.98544 28.8485 9.99433 28.8544 10.0032 28.8603C10.0299 28.8781 10.0565 28.8929 10.0832 28.9077C10.0891 28.9107 10.098 28.9137 10.1039 28.9196C10.1247 28.9314 10.1454 28.9403 10.1691 28.9492C10.1809 28.9551 10.1898 28.9581 10.2017 28.9611C10.2194 28.967 10.2402 28.9759 10.258 28.9818C10.2698 28.9848 10.2817 28.9907 10.2965 28.9936C10.3142 28.9996 10.332 29.0025 10.3498 29.0085C10.3616 29.0114 10.3764 29.0144 10.3883 29.0173C10.4061 29.0203 10.4238 29.0233 10.4446 29.0262C10.4594 29.0262 10.4712 29.0292 10.4861 29.0322C10.5068 29.0322 10.5246 29.0321 10.5453 29.0351C10.5571 29.0351 10.569 29.0351 10.5808 29.0351C10.6105 29.0351 10.643 29.0351 10.6727 29.0322C10.6875 29.0322 10.6993 29.0292 10.7141 29.0262C10.7319 29.0262 10.7526 29.0203 10.7704 29.0173C10.7852 29.0173 10.7971 29.0114 10.8119 29.0085C10.8237 29.0085 10.8356 29.0025 10.8474 28.9996C10.8563 28.9996 10.8622 28.9936 10.8711 28.9936C10.883 28.9907 10.8948 28.9877 10.9067 28.9818C10.9304 28.9759 10.9511 28.967 10.9748 28.9581C10.9807 28.9581 10.9867 28.9551 10.9926 28.9522C11.4191 28.7774 11.8724 28.6885 12.3345 28.6885C13.9785 28.6885 15.4536 29.8527 15.9157 31.5234C16.0461 31.9943 16.4726 32.3024 16.9407 32.3024C17.0354 32.3024 17.1302 32.2906 17.228 32.2639C17.7938 32.1069 18.1255 31.5204 17.9656 30.9546C17.2458 28.3716 14.9293 26.5646 12.3345 26.5646C12.1064 26.5646 11.8783 26.5795 11.6532 26.6061V16.665C11.6532 16.3333 11.8901 16.0637 12.1804 16.0637C12.4707 16.0637 12.7077 16.3333 12.7077 16.665V24.1327C12.7077 24.7192 13.1846 25.1961 13.7711 25.1961C14.3576 25.1961 14.8345 24.7192 14.8345 24.1327V14.4078C14.8345 14.0761 15.0715 13.8065 15.3618 13.8065C15.6521 13.8065 15.8891 14.0761 15.8891 14.4078V24.1327C15.8891 24.7192 16.366 25.1961 16.9525 25.1961C17.539 25.1961 18.0159 24.7192 18.0159 24.1327V16.665C18.0159 16.3333 18.2529 16.0637 18.5432 16.0637C18.8335 16.0637 19.0705 16.3333 19.0705 16.665V24.1327C19.0705 24.7192 19.5474 25.1961 20.1339 25.1961C20.7204 25.1961 21.1973 24.7192 21.1973 24.1327V20.6106C21.1973 20.2789 21.4343 20.0093 21.7246 20.0093C22.0149 20.0093 22.2519 20.2789 22.2519 20.6106V32.4002L22.243 32.4031Z" fill="url(#paint0_linear_1072_4734)"/>
<path d="M16.022 4.87891C9.95548 4.87891 5.02344 10.0183 5.02344 16.3337C5.02344 16.9202 5.50035 17.3971 6.08686 17.3971C6.67338 17.3971 7.15029 16.9202 7.15029 16.3337C7.15029 11.1884 11.1315 7.00575 16.025 7.00575C20.9185 7.00575 24.8997 11.1913 24.8997 16.3337C24.8997 16.9202 25.3766 17.3971 25.9631 17.3971C26.5497 17.3971 27.0266 16.9202 27.0266 16.3337C27.0266 10.0183 22.0916 4.87891 16.028 4.87891H16.022Z" fill="url(#paint1_linear_1072_4734)"/>
<path d="M27.3825 4.91427C24.3521 1.74473 20.3206 0 16.0314 0C11.7421 0 7.62763 1.78028 4.58546 5.01203C1.6292 8.15491 0 12.3138 0 16.7186C0 17.3051 0.476911 17.782 1.06342 17.782C1.64994 17.782 2.12685 17.3051 2.12685 16.7186C2.12685 12.8559 3.55166 9.21833 6.13469 6.46942C8.76807 3.67015 12.2812 2.12685 16.0314 2.12685C19.7815 2.12685 23.2235 3.63756 25.848 6.38351C28.4844 9.14131 29.9359 12.8115 29.9359 16.7186C29.9359 17.3051 30.4128 17.782 30.9993 17.782C31.5858 17.782 32.0627 17.3051 32.0627 16.7186C32.0627 12.2635 30.4009 8.069 27.3854 4.91427H27.3825Z" fill="url(#paint2_linear_1072_4734)"/>
<defs>
<linearGradient id="paint0_linear_1072_4734" x1="14.4837" y1="11.6826" x2="14.4837" y2="38.5082" gradientUnits="userSpaceOnUse">
<stop stop-color="#C1A0E8"/>
<stop offset="1" stop-color="#8345BA"/>
</linearGradient>
<linearGradient id="paint1_linear_1072_4734" x1="16.025" y1="4.87891" x2="16.025" y2="17.3971" gradientUnits="userSpaceOnUse">
<stop stop-color="#C1A0E8"/>
<stop offset="1" stop-color="#8345BA"/>
</linearGradient>
<linearGradient id="paint2_linear_1072_4734" x1="16.0314" y1="0" x2="16.0314" y2="17.782" gradientUnits="userSpaceOnUse">
<stop stop-color="#C1A0E8"/>
<stop offset="1" stop-color="#8345BA"/>
</linearGradient>
</defs>
</svg>
