<svg width="29" height="40" viewBox="0 0 29 40" fill="none" xmlns="http://www.w3.org/2000/svg">
<path d="M26.4889 39C26.5731 38.6836 26.6756 38.258 26.7786 37.7314C27.0308 36.4431 27.2862 34.5515 27.2862 32.1754C27.2862 30.4699 27.1835 28.8689 26.9951 27.3886L26.6073 28.1599L26.3282 28.715L26.3282 28.7151L26.3281 28.7152L26.328 28.7155L26.328 28.7156L26.3276 28.7162L26.3273 28.7169L26.327 28.7175L26.3262 28.7192L26.3114 28.7488L26.1929 28.9857L26.1919 28.9877L25.9129 29.5426C25.9128 29.5428 25.9127 29.543 25.9126 29.5433C25.7042 29.9596 25.3618 30.2416 24.9875 30.397C24.5075 30.5977 24.0283 30.6034 23.6521 30.5668C23.3375 30.5363 23.0218 30.4662 22.7951 30.4159C22.7575 30.4076 22.7224 30.3998 22.6901 30.3928L22.6882 30.3924C21.7194 30.1808 20.7148 29.9594 19.7234 29.6757L26.4889 39ZM26.4889 39H1.79708C1.71296 38.6839 1.61054 38.2587 1.50753 37.7325C1.25541 36.4446 1 34.5531 1 32.1754C1 27.2275 1.86628 23.1569 3.18203 20.3625C4.42626 17.7201 5.93237 16.469 7.29882 16.2951C11.3111 19.4695 16.9832 19.47 20.9933 16.2954C22.359 16.4706 23.8631 17.7205 25.1056 20.3601C25.8976 22.0426 26.5266 24.1884 26.9016 26.7108H26.6741M26.4889 39L26.6741 26.7108M26.6741 26.7108C26.5313 26.301 26.2904 25.9777 26.0693 25.7347C25.8525 25.4965 25.6038 25.2833 25.4247 25.1298C25.3981 25.107 25.373 25.0854 25.3497 25.0653C24.5986 24.4154 23.8197 23.7437 23.0011 23.1194M26.6741 26.7108L23.0011 23.1194M23.0011 23.1194C21.382 21.8818 19.5448 20.8146 17.4688 20.278L23.0011 23.1194ZM14.48 22.2308L13.584 21.7866L13.5856 21.7836L13.7487 21.4574C14.1804 20.594 14.9249 20.2171 15.6487 20.1155C16.3169 20.0217 16.9887 20.1538 17.4687 20.278L14.48 22.2308ZM14.48 22.2308L13.584 21.7867L13.584 21.7867L13.584 21.7868L13.5838 21.7871L13.583 21.7887L13.5801 21.7947L13.5685 21.8179L13.5256 21.9044L13.3805 22.1965C13.2648 22.429 13.1226 22.7141 13.0145 22.9287L13.0133 22.9312L12.8502 23.2574L12.8497 23.2585C12.419 24.1225 12.5634 24.9442 12.9165 25.5849C13.2421 26.1759 13.7504 26.6338 14.1377 26.9434C15.8113 28.288 17.7624 29.1182 19.7234 29.6757L14.48 22.2308ZM21.2817 26.8846C21.2816 26.8846 21.2815 26.8847 21.2814 26.8847L21.2664 26.8597L21.0648 26.5244L21.2817 26.8846ZM21.2817 26.8846C21.3055 26.8703 21.3291 26.8562 21.3526 26.8424C21.4469 26.7871 21.5381 26.7362 21.6243 26.6904C21.7243 26.6371 21.8177 26.5906 21.9014 26.5516C21.9348 26.536 21.9651 26.5223 21.9922 26.5104M21.2817 26.8846L21.0648 26.5241L21.0677 26.5015M21.0677 26.5015C21.2012 26.5193 21.3041 26.5404 21.373 26.5576C21.3994 26.5642 21.4207 26.5703 21.4369 26.5754C21.5257 26.4307 21.6682 26.3334 21.8257 26.2963L22.0182 26.3642M21.0677 26.5015C21.0617 26.5008 21.0558 26.5001 21.05 26.4994L21.0647 26.5239L21.0677 26.5015ZM22.0182 26.3642C22.0171 26.37 22.0159 26.3759 22.0148 26.3819C22.0077 26.4185 21.9999 26.4618 21.9922 26.5104M22.0182 26.3642L22.171 26.4182L22.2036 26.4297L22.2073 26.431M22.0182 26.3642C22.0242 26.3335 22.0297 26.3073 22.0331 26.2908C22.0338 26.2878 22.0343 26.2851 22.0348 26.2829C22.0348 26.2829 22.0349 26.2829 22.035 26.2829C22.0343 26.2866 22.0337 26.2903 22.0331 26.2941C22.0338 26.2899 22.0345 26.2861 22.035 26.2829C22.0696 26.2865 22.1041 26.2931 22.1382 26.3028C22.14 26.3055 22.1418 26.3083 22.1437 26.3111C22.145 26.313 22.1463 26.3148 22.1476 26.3167C22.1481 26.3174 22.1486 26.3182 22.1491 26.3189C22.1534 26.325 22.158 26.3311 22.1627 26.3371C22.1812 26.3607 22.2007 26.3808 22.2198 26.3973C22.222 26.3992 22.2241 26.401 22.2263 26.4028M21.9922 26.5104C21.9837 26.5648 21.9754 26.6258 21.9688 26.6914C21.963 26.7498 21.9578 26.818 21.9556 26.8936C21.9555 26.8948 21.9555 26.8959 21.9555 26.897M21.9922 26.5104L21.9555 26.897M22.2073 26.431L22.2171 26.4288L22.2486 26.4219C22.2668 26.4181 22.278 26.4161 22.2855 26.4149C22.2897 26.4143 22.2922 26.414 22.2933 26.4139C22.2959 26.4136 22.2902 26.4144 22.2791 26.4137C22.2713 26.4133 22.2622 26.4122 22.2525 26.4102C22.2521 26.4102 22.2518 26.4101 22.2515 26.41C22.248 26.4093 22.2447 26.4085 22.2416 26.4077C22.2401 26.4073 22.2386 26.4069 22.2371 26.4065C22.2337 26.4054 22.2305 26.4044 22.2277 26.4034C22.2272 26.4032 22.2267 26.403 22.2263 26.4028M22.2073 26.431L22.3897 26.4954L22.2362 27.0385M22.2073 26.431L22.2362 27.0385M22.2263 26.4028C22.2137 26.3981 22.2176 26.3972 22.2381 26.4124L22.2381 26.4125L22.2457 26.418C22.2432 26.4162 22.2407 26.4143 22.2382 26.4124C22.2342 26.4093 22.2303 26.4062 22.2263 26.4028ZM22.2362 27.0385L22.5262 27.1846L22.236 27.0395L22.2297 27.0618L22.1883 27.2082C22.2276 27.1795 22.2621 27.1426 22.2892 27.0984L22.1596 27.3096L22.1346 27.3981C22.141 27.3756 22.1452 27.3528 22.1472 27.3299L22.1097 27.3911L22.0751 27.4473L22.0735 27.4501L22.0244 27.53M22.2362 27.0385L22.0716 27.6809M21.9555 26.897L21.6331 26.7346L21.6317 26.7374M21.9555 26.897L21.1723 27.1262C21.1432 27.2293 21.1418 27.3361 21.1649 27.4368C21.1738 27.4756 21.1864 27.5136 21.2025 27.55L21.5847 27.6707L21.8807 27.7642L22.0244 27.53M21.6317 26.7374L21.4362 27.1253L21.4362 27.1253L21.4312 27.1354C21.4329 27.132 21.4346 27.1287 21.4363 27.1254C21.4744 27.0528 21.5308 26.9984 21.5961 26.9641M21.6317 26.7374L21.9554 26.8992C21.9552 26.9085 21.955 26.9179 21.9548 26.9273C21.9546 26.9409 21.9545 26.9548 21.9545 26.9688M21.6317 26.7374C21.5951 26.8107 21.5843 26.8897 21.5961 26.9641M21.5961 26.9641C21.6143 27.0786 21.686 27.1826 21.7989 27.239C21.7994 27.2392 21.7998 27.2395 21.8002 27.2397C21.8568 27.2677 21.9164 27.2806 21.9748 27.2797M21.5961 26.9641C21.7005 26.9092 21.8275 26.9054 21.9383 26.9603C21.9387 26.9605 21.9391 26.9608 21.9395 26.961C21.9446 26.9635 21.9496 26.9661 21.9545 26.9688M21.9748 27.2797C21.9782 27.305 21.9821 27.3305 21.9865 27.3563C21.9894 27.3732 21.9926 27.3903 21.996 27.4074C21.9963 27.4092 21.9967 27.4109 21.997 27.4126C22.0048 27.4513 22.0139 27.4905 22.0244 27.53M21.9748 27.2797C22.034 27.2788 22.0919 27.2638 22.1438 27.236C22.1263 27.1282 22.0616 27.0281 21.9545 26.9688M21.9748 27.2797C21.9599 27.1693 21.9545 27.0644 21.9545 26.9688M22.0244 27.53C22.0378 27.5799 22.0534 27.6303 22.0716 27.6809M21.6101 25.5861C21.6975 25.5483 21.7755 25.5179 21.8415 25.4957L21.7743 25.2912C21.7745 25.2911 21.7747 25.2911 21.7748 25.2911L21.8423 25.4954C21.8874 25.4802 21.9269 25.4688 21.96 25.4615C21.9679 25.4598 21.976 25.458 21.9842 25.4562C22.158 25.4174 22.3874 25.3662 22.6659 25.5051C22.7032 25.5238 22.7414 25.5458 22.7805 25.5718C22.7981 25.5834 22.8159 25.5959 22.8338 25.6092M21.6101 25.5861L23.0535 26.2998C23.0651 26.2364 23.0746 26.1588 23.0713 26.0762L23.3676 26.0812M21.6101 25.5861C21.4977 25.5582 21.3589 25.5315 21.1999 25.5103L21.1946 25.5096C21.1777 25.5075 21.161 25.5055 21.1446 25.5039M21.6101 25.5861L21.1446 25.5039M22.8338 25.6092C23.0096 25.737 23.064 25.9128 23.0711 26.0712L23.3661 26.0786M22.8338 25.6092L22.862 25.5705L22.8624 25.5707L22.8338 25.6092ZM23.3661 26.0786C23.3666 26.0795 23.3671 26.0803 23.3676 26.0812M23.3661 26.0786L23.3767 26.0789M23.3661 26.0786L23.3767 26.0789M23.3676 26.0812L23.3722 26.0812M23.3676 26.0812L23.3722 26.0812M23.3722 26.0812C23.3737 26.0804 23.3752 26.0797 23.3767 26.0789M23.3722 26.0812L23.3767 26.0789M22.0716 27.6809C22.0879 27.7261 22.1057 27.7697 22.1246 27.8116C22.2047 27.7568 22.2729 27.6827 22.3208 27.5919L22.072 27.682L22.0716 27.6809ZM21.1446 25.5039C21.0331 25.4924 20.9335 25.4913 20.8496 25.4943C20.8685 25.4536 20.8836 25.4197 20.8957 25.3912C20.896 25.3906 20.8965 25.3895 20.8971 25.3881L21.1446 25.5039ZM21.1446 25.5039C20.9722 25.6049 20.8172 25.7384 20.6899 25.9009C20.6899 25.9009 20.6899 25.9009 20.6899 25.9009C20.6815 25.9116 20.6733 25.9224 20.6652 25.9333L21.1446 25.5039ZM19.4573 25.3918L19.4734 25.4944L19.2165 25.5684C19.2137 25.5648 19.2108 25.5613 19.208 25.5577C19.0957 25.4142 19.0462 25.2708 19.0232 25.1747C19.0226 25.172 19.0219 25.1694 19.0213 25.1668C19.0194 25.1585 19.0177 25.1506 19.0162 25.1432C18.9803 24.9687 19.0017 24.8293 19.0071 24.794L19.0071 24.7936C19.0216 24.6991 19.047 24.631 19.0484 24.6271C19.0547 24.6092 19.0586 24.6007 19.0558 24.6072C19.0418 24.6402 18.9874 24.7585 18.8291 25.0688L18.8291 25.0688L18.8256 25.0759C18.7409 25.2452 18.6865 25.354 18.6476 25.4289L18.4916 25.7299L18.391 25.8062L18.2245 25.8542C18.2094 25.8475 18.1933 25.8402 18.1761 25.8322C18.0245 25.7622 17.8232 25.66 17.5953 25.5338C17.1354 25.2794 16.6138 24.9538 16.2119 24.6429C16.0779 24.5392 16.0056 24.4583 15.9675 24.4056L16.5753 23.1901C16.6397 23.1892 16.7466 23.1988 16.9077 23.2435L16.9084 23.2437C17.3986 23.3795 17.9714 23.6022 18.45 23.8181C18.6872 23.9251 18.8891 24.0249 19.0354 24.1043C19.0779 24.1274 19.113 24.1473 19.141 24.1638C19.1476 24.1981 19.1623 24.3241 19.0635 24.5748L19.4859 24.8631C19.4471 24.8776 19.4153 24.8884 19.3909 24.896C19.3687 24.9029 19.3587 24.9053 19.3591 24.9052C19.3594 24.9052 19.3669 24.9034 19.3804 24.9013L19.4569 25.3889L19.4573 25.3918ZM21.0647 26.5242L20.9955 27.0427L20.2287 26.7205C20.2293 26.7203 20.2298 26.7201 20.2304 26.7198C20.2431 26.715 20.2556 26.7101 20.2679 26.7053C20.386 26.659 20.5145 26.604 20.6485 26.5415C20.649 26.5413 20.6495 26.541 20.65 26.5408C20.6741 26.5296 20.6983 26.5182 20.7227 26.5065C20.7314 26.5057 20.74 26.5049 20.7484 26.5041C20.8493 26.4946 20.9351 26.4865 21.0497 26.4994L21.0647 26.5242ZM20.6021 26.1041C20.5827 26.1061 20.5636 26.1079 20.5448 26.1094L20.6489 25.9026L20.6648 25.9338C20.6365 25.9718 20.6098 26.0114 20.5846 26.0524L20.6517 26.0935C20.6475 26.0958 20.6433 26.0981 20.6392 26.1004C20.6278 26.1015 20.6163 26.1026 20.6048 26.1038L20.6021 26.1041ZM15.9281 24.3355C15.9283 24.3355 15.9293 24.3379 15.9305 24.343C15.9285 24.3381 15.9279 24.3355 15.9281 24.3355ZM16.4954 23.2004C16.4953 23.2002 16.4978 23.1992 16.5031 23.1978C16.4982 23.1999 16.4955 23.2006 16.4954 23.2004ZM20.8308 7.63693C20.8308 11.3023 17.8577 14.2738 14.1877 14.2738C10.5177 14.2738 7.54462 11.3023 7.54462 7.63693C7.54462 3.9718 10.5205 1 14.1877 1C17.8549 1 20.8308 3.9718 20.8308 7.63693Z" stroke="url(#paint0_linear_1072_4702)" stroke-width="2"/>
<defs>
<linearGradient id="paint0_linear_1072_4702" x1="14.1431" y1="0" x2="14.1431" y2="40" gradientUnits="userSpaceOnUse">
<stop stop-color="#C1A0E8"/>
<stop offset="1" stop-color="#8345BA"/>
</linearGradient>
</defs>
</svg>
