<svg width="31" height="40" viewBox="0 0 31 40" fill="none" xmlns="http://www.w3.org/2000/svg">
<path d="M12.5622 23.5463L12.6422 23.6694L12.8514 23.9832L13.196 23.8325L13.2975 23.7894L13.0791 24.2048L13.5037 24.3463L13.2206 24.4878L13.4021 24.8601H13.2852L12.9129 24.8693L12.8483 25.2354L12.8268 25.3554L12.6607 25.2108L12.3991 24.9801L12.1099 25.177L11.9469 25.2908V25.2724L12.0176 24.7339L11.5038 24.7647L11.7469 24.5493L11.4331 24.2355H11.4423L11.9038 24.0971L11.7407 23.6448L11.7346 23.6325L11.9007 23.7309L12.1992 23.9063L12.4453 23.6633L12.5591 23.5525M10.8885 22.6203L11.3161 23.8017L10.5777 24.0171L11.0885 24.5278L10.2178 25.2939L11.5007 25.217L11.3746 26.2292L12.3653 25.5523L13.1314 26.2231L13.2945 25.3185L14.1159 25.3062L13.8206 24.697L14.6759 24.2694L13.7221 23.9494L14.2882 22.8726L13.0145 23.4233L12.6299 22.8449L12.1284 23.3402L10.8885 22.6172V22.6203Z" fill="url(#paint0_linear_1072_4703)"/>
<path d="M27.7886 23.512L26.0626 24.7396C25.5611 25.0965 25.2565 25.6657 25.2503 26.2656C25.2442 26.801 25.2226 27.7947 25.2011 28.7547C25.1796 29.65 25.1642 30.4407 25.158 30.8406C24.9488 31.2283 24.0904 32.4128 22.4198 34.3204C20.7584 36.2218 19.6108 37.3324 19.3 37.5416C18.8908 37.7016 17.3156 37.797 15.8603 37.7509C15.8387 37.7509 15.8203 37.7509 15.7988 37.7509H14.7619C14.7435 37.7509 14.725 37.7509 14.7065 37.7509C13.2605 37.8247 11.676 37.7355 11.3006 37.5663C10.473 37.0309 6.09798 32.0067 5.3965 30.8099C5.39034 30.3976 5.37188 29.6315 5.35342 28.77C5.33189 27.8101 5.30727 26.8163 5.30112 26.281C5.29189 25.681 4.9873 25.1088 4.4858 24.755L2.75978 23.5304C2.43058 23.2966 2.2429 22.952 2.2429 22.5859V20.2076C2.2429 19.5154 2.80901 18.9523 3.50742 18.9493C4.20582 18.9493 4.77501 19.5123 4.77501 20.2046C4.77501 20.8168 5.27651 21.3122 5.89184 21.3122C6.50718 21.3122 7.00868 20.8137 7.00868 20.2046C7.00868 18.9554 6.33488 17.8694 5.33496 17.2602V11.1284C5.33189 10.3038 6.00568 9.63616 6.83638 9.63309L21.1799 9.62386C23.5058 9.62386 25.3918 11.4914 25.3918 13.7958V17.1433C24.2904 17.7278 23.5335 18.8693 23.5335 20.1923C23.5335 20.8045 24.035 21.2999 24.6504 21.2999C25.2688 21.2999 25.7672 20.8014 25.7672 20.1923C25.7672 19.5 26.3333 18.937 27.0317 18.9339C27.7301 18.9339 28.2993 19.4969 28.2993 20.1892V22.5675C28.2993 22.9367 28.1116 23.2812 27.7855 23.5151M30.5361 20.183V20.1769C30.533 19.1677 30.0869 18.2693 29.3884 17.6355L29.3823 9.6177V8.11013C29.3823 4.85808 26.721 2.22444 23.4412 2.22752H22.8782C21.7891 2.22752 20.7461 1.79986 19.9769 1.03684L18.9277 0C17.4878 1.43066 15.5372 2.23367 13.4974 2.23367H9.51002C6.23335 2.23982 3.5751 4.87654 3.57818 8.12551C2.33828 8.12551 1.3322 9.12543 1.3322 10.3561V17.4971C0.529189 18.1309 0.00307668 19.1 0 20.1953V22.5859C0 23.6627 0.544572 24.6873 1.45527 25.3334L3.06437 26.4748C3.0736 27.044 3.09514 27.9455 3.1136 28.8254C3.13514 29.7823 3.15975 30.7699 3.15975 31.0345C3.15975 31.416 3.15975 31.8867 6.28873 35.5264C7.4148 36.8371 9.42695 39.0985 10.2453 39.5261C10.9899 39.9138 12.4329 40.003 13.5835 39.9999C14.0604 39.9999 14.485 39.9845 14.7896 39.9692H15.7741C16.5802 39.9938 19.1831 40.0368 20.2599 39.5477C21.0783 39.1723 23.0966 36.9386 24.2258 35.6403C27.3886 32.0036 27.3886 31.4129 27.3886 31.0222C27.3886 30.7576 27.4101 29.7669 27.4317 28.81C27.4501 27.9332 27.4717 27.0286 27.4778 26.4625L29.0869 25.3211C29.9946 24.675 30.5391 23.6474 30.5361 22.5705V20.1861V20.183Z" fill="url(#paint1_linear_1072_4703)"/>
<defs>
<linearGradient id="paint0_linear_1072_4703" x1="12.4468" y1="22.6172" x2="12.4468" y2="26.2292" gradientUnits="userSpaceOnUse">
<stop stop-color="#C1A0E8"/>
<stop offset="1" stop-color="#8345BA"/>
</linearGradient>
<linearGradient id="paint1_linear_1072_4703" x1="15.268" y1="0" x2="15.268" y2="40" gradientUnits="userSpaceOnUse">
<stop stop-color="#C1A0E8"/>
<stop offset="1" stop-color="#8345BA"/>
</linearGradient>
</defs>
</svg>
