<svg width="33" height="42" viewBox="0 0 33 42" fill="none" xmlns="http://www.w3.org/2000/svg">
<path d="M30.5969 18.8668C31.6484 19.3265 32.1339 20.5647 31.6743 21.6162L31.6168 21.7455C31.1571 22.797 29.9189 23.2826 28.8674 22.8229L21.6419 20.4441V35.3748L21.6822 36.2855L21.7655 37.0554C21.7655 38.0093 21.1306 38.6413 20.4008 39.0263L20.0273 39.2389L17.3612 40.8104C17.1142 40.954 16.7895 41 16.7895 41C16.123 41 15.5829 40.5087 15.5829 39.9054L16.8441 36.1591L15.8099 29.5657C15.8099 29.2583 15.6432 29.0112 15.4364 29.0112C15.2295 29.0112 15.0629 29.2612 15.0629 29.5657L14.3619 34.5876L14.3763 35.3863C14.3763 36.2424 13.816 36.8802 13.1754 37.0727L9.40032 38.739C8.7338 38.739 8.17932 38.2477 8.19368 37.6444C8.19943 37.3514 8.35169 37.1646 8.35169 37.1646L9.85424 34.533L9.74507 19.315L2.94194 19.5276C1.95939 19.6052 1.09177 18.864 1.0142 17.8814L1.00557 17.7608C0.928005 16.7782 1.66923 15.9106 2.65177 15.833L12.4543 13.8679C12.7559 13.8679 13.0001 13.6094 13.0001 13.2876L12.9743 12.3654C11.0465 11.3627 9.73071 9.34591 9.73071 7.0217C9.73071 3.69483 12.4255 1 15.7524 1C19.0793 1 21.7741 3.69483 21.7741 7.0217C21.7741 9.36027 20.4439 11.3857 18.4961 12.3826C18.4989 12.8653 18.3869 13.8105 18.996 13.9512L30.5969 18.864V18.8668Z" stroke="url(#paint0_linear_1072_4714)" stroke-width="2" stroke-miterlimit="10"/>
<path d="M14.0027 6.23135C14.0027 6.53301 13.7585 6.78008 13.454 6.78008C13.1495 6.78008 12.9053 6.53588 12.9053 6.23135C12.9053 5.92682 13.1495 5.68262 13.454 5.68262C13.7585 5.68262 14.0027 5.92682 14.0027 6.23135Z" fill="url(#paint1_linear_1072_4714)" stroke="url(#paint2_linear_1072_4714)" stroke-width="0.288712" stroke-miterlimit="10"/>
<path d="M18.5106 6.23135C18.5106 6.53301 18.2664 6.78008 17.9618 6.78008C17.6573 6.78008 17.4131 6.53588 17.4131 6.23135C17.4131 5.92682 17.6573 5.68262 17.9618 5.68262C18.2664 5.68262 18.5106 5.92682 18.5106 6.23135Z" fill="url(#paint3_linear_1072_4714)" stroke="url(#paint4_linear_1072_4714)" stroke-width="0.288712" stroke-miterlimit="10"/>
<path d="M9.74512 19.3119L9.60283 19.2876L9.57396 19.4563H9.74512V19.3119ZM13.0547 15.0657L13.0755 15.2086L13.0757 15.2086L13.0547 15.0657ZM9.74799 19.3119L9.89234 19.3104L9.89081 19.1676H9.74799V19.3119ZM9.78821 23.064L9.64386 23.0655L9.64397 23.0753L9.64539 23.085L9.78821 23.064ZM10.9834 24.1758L10.9637 24.3188L10.9639 24.3189L10.9834 24.1758ZM14.4194 23.5323L14.5147 23.6407L14.5149 23.6405L14.4194 23.5323ZM15.1184 21.9507L15.2618 21.9679L15.2694 21.9043L15.2274 21.856L15.1184 21.9507ZM13.543 20.1363L13.6521 20.0415L13.6474 20.0366L13.543 20.1363ZM13.3591 19.9237L13.2436 20.0103L13.2441 20.0109L13.3591 19.9237ZM13.3419 19.9007L13.2244 19.9846L13.2264 19.9873L13.3419 19.9007ZM15.2881 17.0724L15.2442 17.2099L15.4642 17.2803L15.431 17.0517L15.2881 17.0724ZM9.8874 19.3363C10.212 17.4397 11.0211 16.4107 11.7363 15.8548C12.0954 15.5758 12.4338 15.4136 12.681 15.3215C12.8045 15.2754 12.9052 15.2469 12.974 15.23C13.0084 15.2216 13.0348 15.2161 13.0521 15.2127C13.0607 15.2111 13.0671 15.21 13.0711 15.2093C13.073 15.209 13.0744 15.2087 13.0752 15.2086C13.0755 15.2086 13.0757 15.2085 13.0758 15.2085C13.0758 15.2085 13.0758 15.2085 13.0758 15.2085C13.0758 15.2085 13.0757 15.2085 13.0757 15.2086C13.0756 15.2086 13.0755 15.2086 13.0547 15.0657C13.034 14.9229 13.0339 14.9229 13.0338 14.9229C13.0337 14.9229 13.0336 14.9229 13.0335 14.9229C13.0333 14.923 13.033 14.923 13.0327 14.9231C13.0321 14.9231 13.0314 14.9233 13.0305 14.9234C13.0287 14.9237 13.0262 14.9241 13.0232 14.9246C13.0171 14.9256 13.0085 14.9271 12.9976 14.9292C12.9757 14.9334 12.9446 14.94 12.9053 14.9496C12.8266 14.9689 12.7152 15.0006 12.5801 15.0509C12.31 15.1516 11.9449 15.3271 11.5591 15.6269C10.7847 16.2288 9.93904 17.3229 9.60283 19.2876L9.8874 19.3363ZM9.74799 19.1676H9.74512V19.4563H9.74799V19.1676ZM9.93256 23.0624L9.89234 19.3104L9.60364 19.3135L9.64386 23.0655L9.93256 23.0624ZM11.003 24.0328C10.6053 23.9781 10.3625 23.8561 10.2085 23.6964C10.054 23.5362 9.97182 23.3204 9.93103 23.043L9.64539 23.085C9.69079 23.3937 9.78813 23.6763 10.0007 23.8968C10.2137 24.1178 10.5254 24.2586 10.9637 24.3188L11.003 24.0328ZM14.3241 23.4239C13.9244 23.7754 13.3615 23.9658 12.7562 24.0482C12.1529 24.1304 11.5222 24.1034 11.0028 24.0328L10.9639 24.3189C11.5018 24.3919 12.1596 24.4209 12.7952 24.3343C13.4289 24.248 14.0554 24.0447 14.5147 23.6407L14.3241 23.4239ZM14.9751 21.9334C14.9051 22.5167 14.7466 23.0512 14.3239 23.424L14.5149 23.6405C15.0183 23.1965 15.189 22.5736 15.2618 21.9679L14.9751 21.9334ZM15.2274 21.856L13.652 20.0416L13.434 20.2309L15.0094 22.0453L15.2274 21.856ZM13.6474 20.0366C13.5887 19.9752 13.5326 19.9135 13.4741 19.8364L13.2441 20.0109C13.312 20.1005 13.3766 20.171 13.4386 20.236L13.6474 20.0366ZM13.4746 19.8371L13.4574 19.8141L13.2264 19.9873L13.2436 20.0103L13.4746 19.8371ZM13.4593 19.8168C13.2606 19.5386 13.1444 19.2029 13.1444 18.8348H12.8556C12.8556 19.2655 12.9922 19.6595 13.2244 19.9846L13.4593 19.8168ZM13.1444 18.8348C13.1444 17.9004 13.9014 17.1434 14.8358 17.1434V16.8547C13.7419 16.8547 12.8556 17.741 12.8556 18.8348H13.1444ZM14.8358 17.1434C14.9751 17.1434 15.1117 17.1676 15.2442 17.2099L15.3321 16.9349C15.1751 16.8847 15.0088 16.8547 14.8358 16.8547V17.1434ZM13.0757 15.2086C13.7786 15.1055 14.241 15.2842 14.5531 15.6152C14.8735 15.9548 15.0557 16.4756 15.1453 17.0931L15.431 17.0517C15.3381 16.4116 15.1438 15.8205 14.7632 15.4171C14.3744 15.0049 13.8113 14.809 13.0338 14.9229L13.0757 15.2086Z" fill="url(#paint5_linear_1072_4714)"/>
<path d="M14.8428 21.6332L14.9852 21.6566L14.9962 21.5897L14.9518 21.5386L14.8428 21.6332ZM13.543 20.1363L13.6521 20.0415L13.6474 20.0366L13.543 20.1363ZM13.3591 19.9237L13.2436 20.0103L13.2441 20.0109L13.3591 19.9237ZM13.3419 19.9007L13.2244 19.9846L13.2264 19.9873L13.3419 19.9007ZM14.7485 17.0011L14.7553 17.1453L14.9785 17.1348L14.8772 16.9356L14.7485 17.0011ZM13.3223 16.3334L13.3013 16.1905L13.3012 16.1906L13.3223 16.3334ZM11.8513 17.2326L11.7437 17.1363L11.7436 17.1365L11.8513 17.2326ZM10.8343 20.7778L10.9786 20.7787L10.9786 20.7785L10.8343 20.7778ZM10.8183 21.2197L10.9624 21.2269L10.9624 21.2269L10.8183 21.2197ZM11.7766 23.1365L11.7896 22.9927L11.7893 22.9927L11.7766 23.1365ZM14.3421 22.6567L14.4374 22.7652L14.4375 22.7651L14.3421 22.6567ZM14.9518 21.5386L13.652 20.0416L13.434 20.2309L14.7338 21.7279L14.9518 21.5386ZM13.6474 20.0366C13.5887 19.9752 13.5326 19.9135 13.4741 19.8364L13.2441 20.0109C13.312 20.1005 13.3766 20.171 13.4386 20.236L13.6474 20.0366ZM13.4746 19.8371L13.4574 19.8141L13.2264 19.9873L13.2436 20.0103L13.4746 19.8371ZM13.4593 19.8168C13.2606 19.5386 13.1444 19.2029 13.1444 18.8348H12.8556C12.8556 19.2655 12.9922 19.6595 13.2244 19.9846L13.4593 19.8168ZM13.1444 18.8348C13.1444 17.9274 13.8583 17.1872 14.7553 17.1453L14.7418 16.8569C13.6915 16.906 12.8556 17.7725 12.8556 18.8348H13.1444ZM14.8772 16.9356C14.7431 16.6718 14.5529 16.4522 14.2873 16.3156C14.0218 16.179 13.6952 16.1328 13.3013 16.1905L13.3432 16.4762C13.6923 16.4251 13.9552 16.4694 14.1552 16.5723C14.3552 16.6751 14.5066 16.8438 14.6199 17.0665L14.8772 16.9356ZM13.3012 16.1906C12.6871 16.281 12.1214 16.7144 11.7437 17.1363L11.9589 17.3289C12.3166 16.9292 12.8255 16.5524 13.3433 16.4762L13.3012 16.1906ZM11.7436 17.1365C10.8289 18.1621 10.6957 19.5128 10.6899 20.7772L10.9786 20.7785C10.9844 19.5204 11.1212 18.2682 11.959 17.3287L11.7436 17.1365ZM10.6899 20.7769C10.6891 20.9127 10.6818 21.0587 10.6741 21.2125L10.9624 21.2269C10.9701 21.0745 10.9777 20.922 10.9786 20.7787L10.6899 20.7769ZM10.6741 21.2125C10.6532 21.6308 10.627 22.1155 10.7501 22.5063C10.8131 22.7063 10.9171 22.8897 11.0862 23.0292C11.2556 23.1689 11.4789 23.2552 11.7639 23.2803L11.7893 22.9927C11.5495 22.9716 11.3853 22.9016 11.2699 22.8065C11.1542 22.711 11.0763 22.5808 11.0255 22.4196C10.9212 22.0883 10.9407 21.6609 10.9624 21.2269L10.6741 21.2125ZM11.7636 23.2803C12.1643 23.3166 12.6574 23.3384 13.1346 23.2779C13.6099 23.2177 14.0861 23.074 14.4374 22.7652L14.2468 22.5483C13.9575 22.8026 13.5475 22.9346 13.0983 22.9915C12.6512 23.0481 12.1819 23.0283 11.7896 22.9927L11.7636 23.2803ZM14.4375 22.7651C14.7785 22.4649 14.9192 22.0593 14.9852 21.6566L14.7003 21.6098C14.6393 21.9821 14.5162 22.3112 14.2468 22.5484L14.4375 22.7651Z" fill="url(#paint6_linear_1072_4714)"/>
<path d="M16.0381 17.4117L15.8943 17.3994L15.867 17.7169L16.1237 17.528L16.0381 17.4117ZM18.5938 19.9222L18.7093 20.0088L18.7113 20.0061L18.5938 19.9222ZM18.5766 19.9452L18.4611 19.8585L18.4597 19.8605L18.5766 19.9452ZM18.3927 20.1578L18.2904 20.0554L18.2837 20.0631L18.3927 20.1578ZM16.3606 22.4981L16.2516 22.4034L16.2009 22.4618L16.2215 22.5364L16.3606 22.4981ZM16.9496 23.4961L16.8541 23.6044L16.8542 23.6045L16.9496 23.4961ZM20.3856 24.1396L20.3985 24.2834L20.3987 24.2834L20.3856 24.1396ZM21.6322 22.3644L21.4879 22.3685L21.4879 22.3685L21.6322 22.3644ZM21.6304 21.2359L21.7748 21.2379L21.7748 21.2379L21.6304 21.2359ZM21.1211 17.506L20.9896 17.5656L20.9897 17.5658L21.1211 17.506ZM18.3142 15.0295L18.3353 14.8867L18.3352 14.8867L18.3142 15.0295ZM16.1237 17.528C16.4081 17.3186 16.7463 17.1649 17.0999 17.1649V16.8762C16.6634 16.8762 16.2661 17.0646 15.9525 17.2955L16.1237 17.528ZM17.0999 17.1649C18.0343 17.1649 18.7914 17.9219 18.7914 18.8563H19.0801C19.0801 17.7624 18.1938 16.8762 17.0999 16.8762V17.1649ZM18.7914 18.8563C18.7914 19.2216 18.675 19.5602 18.4764 19.8383L18.7113 20.0061C18.9436 19.6809 19.0801 19.284 19.0801 18.8563H18.7914ZM18.4784 19.8356L18.4611 19.8585L18.6921 20.0318L18.7093 20.0088L18.4784 19.8356ZM18.4597 19.8605C18.4052 19.9357 18.3505 19.9959 18.2907 20.0557L18.4948 20.2598C18.5614 20.1932 18.6273 20.1213 18.6935 20.0298L18.4597 19.8605ZM18.2837 20.0631L16.2516 22.4034L16.4696 22.5927L18.5017 20.2524L18.2837 20.0631ZM17.0451 23.3878C16.7633 23.1393 16.5989 22.8191 16.4998 22.4597L16.2215 22.5364C16.3308 22.9327 16.5185 23.3084 16.8541 23.6044L17.0451 23.3878ZM20.3728 23.9959C19.8453 24.0429 19.2129 24.0699 18.6092 23.9936C18.0036 23.9169 17.4434 23.7382 17.0449 23.3877L16.8542 23.6045C17.3148 24.0096 17.9411 24.2 18.573 24.28C19.2068 24.3602 19.8629 24.3312 20.3985 24.2834L20.3728 23.9959ZM21.4879 22.3685C21.4948 22.606 21.5008 22.8197 21.487 23.0125C21.4732 23.2049 21.4401 23.3655 21.3751 23.4976C21.2531 23.7456 20.994 23.9395 20.3726 23.9959L20.3987 24.2834C21.0718 24.2223 21.4497 23.9998 21.6341 23.6251C21.7223 23.446 21.7599 23.2437 21.775 23.0332C21.79 22.8231 21.7833 22.594 21.7765 22.3602L21.4879 22.3685ZM21.4795 21.9275C21.4795 22.0798 21.4838 22.2279 21.4879 22.3685L21.7765 22.3602C21.7724 22.2189 21.7682 22.0749 21.7682 21.9275H21.4795ZM21.4861 21.2338C21.4828 21.4636 21.4795 21.6952 21.4795 21.9275H21.7682C21.7682 21.6976 21.7715 21.468 21.7748 21.2379L21.4861 21.2338ZM20.9897 17.5658C21.5195 18.7295 21.5043 19.9521 21.4861 21.2338L21.7748 21.2379C21.7928 19.9665 21.8133 18.6781 21.2525 17.4462L20.9897 17.5658ZM18.2931 15.1723C19.5436 15.3572 20.4753 16.4296 20.9896 17.5656L21.2526 17.4465C20.7211 16.2725 19.728 15.0926 18.3353 14.8867L18.2931 15.1723ZM16.1819 17.4241C16.2426 16.7168 16.4024 16.0964 16.7265 15.6838C17.0404 15.2841 17.5241 15.0597 18.2933 15.1724L18.3352 14.8867C17.4797 14.7614 16.8868 15.0123 16.4995 15.5054C16.1224 15.9855 15.9564 16.6753 15.8943 17.3994L16.1819 17.4241Z" fill="url(#paint7_linear_1072_4714)"/>
<path d="M16.5508 17.1053L16.4167 17.0519L16.295 17.3573L16.6022 17.2401L16.5508 17.1053ZM18.594 19.9007L18.7095 19.9873L18.7115 19.9846L18.594 19.9007ZM18.5768 19.9237L18.4613 19.837L18.4598 19.839L18.5768 19.9237ZM18.3929 20.1363L18.2906 20.034L18.2839 20.0416L18.3929 20.1363ZM16.6775 22.1118L16.5685 22.0171L16.5088 22.0859L16.5452 22.1695L16.6775 22.1118ZM17.0287 22.602L16.9334 22.7104L16.9334 22.7105L17.0287 22.602ZM19.5943 23.0818L19.5816 22.938L19.5813 22.9381L19.5943 23.0818ZM20.5526 21.165L20.6968 21.1578L20.6968 21.1578L20.5526 21.165ZM20.5366 20.7231L20.3923 20.7238L20.3923 20.724L20.5366 20.7231ZM19.5196 17.1779L19.6273 17.0818L19.6271 17.0816L19.5196 17.1779ZM18.0486 16.2787L18.0697 16.1359L18.0696 16.1359L18.0486 16.2787ZM16.6022 17.2401C16.7621 17.1791 16.9293 17.1434 17.1001 17.1434V16.8547C16.8887 16.8547 16.6866 16.8989 16.4993 16.9704L16.6022 17.2401ZM17.1001 17.1434C18.0345 17.1434 18.7915 17.9004 18.7915 18.8348H19.0802C19.0802 17.741 18.1939 16.8547 17.1001 16.8547V17.1434ZM18.7915 18.8348C18.7915 19.2001 18.6752 19.5387 18.4765 19.8168L18.7115 19.9846C18.9438 19.6594 19.0802 19.2625 19.0802 18.8348H18.7915ZM18.4785 19.8141L18.4613 19.8371L18.6922 20.0103L18.7095 19.9873L18.4785 19.8141ZM18.4598 19.839C18.4054 19.9142 18.3506 19.9744 18.2908 20.0342L18.495 20.2384C18.5616 20.1717 18.6275 20.0998 18.6937 20.0083L18.4598 19.839ZM18.2839 20.0416L16.5685 22.0171L16.7865 22.2064L18.5019 20.2309L18.2839 20.0416ZM17.1241 22.4937C16.983 22.3694 16.8825 22.2206 16.8099 22.054L16.5452 22.1695C16.6322 22.3687 16.7558 22.5541 16.9334 22.7104L17.1241 22.4937ZM19.5813 22.9381C19.189 22.9736 18.7197 22.9934 18.2726 22.9368C17.8234 22.8799 17.4133 22.7479 17.124 22.4936L16.9334 22.7105C17.2848 23.0193 17.761 23.163 18.2363 23.2232C18.7135 23.2837 19.2066 23.2619 19.6073 23.2256L19.5813 22.9381ZM20.4084 21.1722C20.4302 21.6062 20.4497 22.0336 20.3454 22.3649C20.2946 22.5261 20.2167 22.6564 20.101 22.7518C19.9856 22.8469 19.8214 22.9169 19.5816 22.938L19.607 23.2256C19.892 23.2005 20.1153 23.1142 20.2847 22.9745C20.4538 22.835 20.5578 22.6516 20.6208 22.4517C20.7439 22.0608 20.7177 21.5761 20.6968 21.1578L20.4084 21.1722ZM20.3923 20.724C20.3932 20.8674 20.4008 21.0199 20.4084 21.1722L20.6968 21.1578C20.6891 21.004 20.6818 20.8581 20.681 20.7222L20.3923 20.724ZM19.4119 17.274C20.2497 18.2135 20.3865 19.4657 20.3923 20.7238L20.681 20.7225C20.6752 19.4582 20.542 18.1074 19.6273 17.0818L19.4119 17.274ZM18.0276 16.4215C18.5454 16.4977 19.0543 16.8745 19.412 17.2742L19.6271 17.0816C19.2494 16.6597 18.6838 16.2263 18.0697 16.1359L18.0276 16.4215ZM16.6849 17.1587C16.7927 16.8878 16.9453 16.6804 17.1541 16.5523C17.3618 16.4248 17.6425 16.3651 18.0277 16.4215L18.0696 16.1359C17.6341 16.072 17.2814 16.1354 17.0031 16.3062C16.726 16.4763 16.5399 16.7423 16.4167 17.0519L16.6849 17.1587Z" fill="url(#paint8_linear_1072_4714)"/>
<path d="M15.9706 17.4415C16.2809 17.1973 16.6745 16.999 17.0997 16.999C18.1138 16.999 18.9355 17.8207 18.9355 18.8348C18.9355 19.2313 18.8091 19.599 18.5936 19.9007L18.5764 19.9237C18.5161 20.007 18.4557 20.0731 18.3925 20.1363L15.9678 22.9288L13.543 20.1363C13.4827 20.0731 13.4223 20.007 13.3591 19.9237L13.3419 19.9007C13.1264 19.599 13 19.2342 13 18.8348C13 17.8207 13.8217 16.999 14.8358 16.999C15.261 16.999 15.6517 17.2001 15.9649 17.4415H15.9706Z" stroke="url(#paint9_linear_1072_4714)" stroke-width="0.288712" stroke-miterlimit="10"/>
<defs>
<linearGradient id="paint0_linear_1072_4714" x1="16.4239" y1="1" x2="16.4239" y2="41" gradientUnits="userSpaceOnUse">
<stop stop-color="#C1A0E8"/>
<stop offset="1" stop-color="#8345BA"/>
</linearGradient>
<linearGradient id="paint1_linear_1072_4714" x1="13.454" y1="5.68262" x2="13.454" y2="6.78008" gradientUnits="userSpaceOnUse">
<stop stop-color="#C1A0E8"/>
<stop offset="1" stop-color="#8345BA"/>
</linearGradient>
<linearGradient id="paint2_linear_1072_4714" x1="13.454" y1="5.68262" x2="13.454" y2="6.78008" gradientUnits="userSpaceOnUse">
<stop stop-color="#C1A0E8"/>
<stop offset="1" stop-color="#8345BA"/>
</linearGradient>
<linearGradient id="paint3_linear_1072_4714" x1="17.9618" y1="5.68262" x2="17.9618" y2="6.78008" gradientUnits="userSpaceOnUse">
<stop stop-color="#C1A0E8"/>
<stop offset="1" stop-color="#8345BA"/>
</linearGradient>
<linearGradient id="paint4_linear_1072_4714" x1="17.9618" y1="5.68262" x2="17.9618" y2="6.78008" gradientUnits="userSpaceOnUse">
<stop stop-color="#C1A0E8"/>
<stop offset="1" stop-color="#8345BA"/>
</linearGradient>
<linearGradient id="paint5_linear_1072_4714" x1="12.5166" y1="15.0352" x2="12.5166" y2="24.2432" gradientUnits="userSpaceOnUse">
<stop stop-color="#C1A0E8"/>
<stop offset="1" stop-color="#8345BA"/>
</linearGradient>
<linearGradient id="paint6_linear_1072_4714" x1="12.8218" y1="16.3105" x2="12.8218" y2="23.1714" gradientUnits="userSpaceOnUse">
<stop stop-color="#C1A0E8"/>
<stop offset="1" stop-color="#8345BA"/>
</linearGradient>
<linearGradient id="paint7_linear_1072_4714" x1="18.8389" y1="14.999" x2="18.8389" y2="24.1858" gradientUnits="userSpaceOnUse">
<stop stop-color="#C1A0E8"/>
<stop offset="1" stop-color="#8345BA"/>
</linearGradient>
<linearGradient id="paint8_linear_1072_4714" x1="18.5604" y1="16.2559" x2="18.5604" y2="23.1167" gradientUnits="userSpaceOnUse">
<stop stop-color="#C1A0E8"/>
<stop offset="1" stop-color="#8345BA"/>
</linearGradient>
<linearGradient id="paint9_linear_1072_4714" x1="15.9678" y1="16.999" x2="15.9678" y2="22.9288" gradientUnits="userSpaceOnUse">
<stop stop-color="#C1A0E8"/>
<stop offset="1" stop-color="#8345BA"/>
</linearGradient>
</defs>
</svg>
