<svg width="20" height="20" viewBox="0 0 20 20" fill="none" xmlns="http://www.w3.org/2000/svg">
<path d="M13.5716 19.2857V15.7143H16.4288C16.8076 15.7143 17.1711 15.5637 17.4389 15.2959C17.7068 15.0279 17.8574 14.6646 17.8574 14.2857V8.57139C17.8571 7.17499 17.4846 5.8039 16.7785 4.59925C16.0724 3.39459 15.0578 2.3999 13.8395 1.71758C12.6212 1.03525 11.243 0.689944 9.84687 0.717195C8.45075 0.744448 7.08711 1.14328 5.89632 1.87263C4.70555 2.60198 3.73067 3.6355 3.07201 4.86679C2.41337 6.09809 2.09477 7.48268 2.14899 8.878C2.20324 10.2733 2.62835 11.629 3.38058 12.8055C4.13281 13.9819 5.18498 14.9366 6.42878 15.5714V19.2857" stroke="#3FB4F1" stroke-linecap="round" stroke-linejoin="round"/>
<path d="M7.85759 4.73073C5.88686 5.86853 5.06694 8.23408 5.80617 10.3034C5.97686 10.7812 6.49257 11.0214 6.983 10.8915C9.46447 10.2342 11.991 8.45591 13.5259 7.06948C13.9326 6.70215 14.0168 6.0883 13.6545 5.67713C12.2244 4.05387 9.80322 3.60741 7.85759 4.73073Z" stroke="#3FB4F1" stroke-linecap="round" stroke-linejoin="round"/>
</svg>
