<svg width="20" height="20" viewBox="0 0 20 20" fill="none" xmlns="http://www.w3.org/2000/svg">
<g clip-path="url(#clip0_774_4689)">
<path d="M2.14293 2.85706C1.76404 2.85706 1.40068 3.00757 1.13277 3.27547C0.864865 3.54338 0.714355 3.90674 0.714355 4.28563V17.8571C0.714355 18.2359 0.864865 18.5993 1.13277 18.8672C1.40068 19.1351 1.76404 19.2856 2.14293 19.2856H17.8572C18.2361 19.2856 18.5995 19.1351 18.8674 18.8672C19.1352 18.5993 19.2858 18.2359 19.2858 17.8571V4.28563C19.2858 3.90674 19.1352 3.54338 18.8674 3.27547C18.5995 3.00757 18.2361 2.85706 17.8572 2.85706H15.0001" stroke="#3FB4F1" stroke-linecap="round" stroke-linejoin="round"/>
<path d="M5 0.714233V4.99995" stroke="#3FB4F1" stroke-linecap="round" stroke-linejoin="round"/>
<path d="M15 0.714233V4.99995" stroke="#3FB4F1" stroke-linecap="round" stroke-linejoin="round"/>
<path d="M5 2.85706H12.1429" stroke="#3FB4F1" stroke-linecap="round" stroke-linejoin="round"/>
<path d="M10.3552 6.6462L11.5503 9.05043C11.5771 9.11123 11.6194 9.16386 11.6732 9.20291C11.7269 9.24198 11.79 9.2661 11.8561 9.27278L14.5104 9.6758C14.5863 9.68567 14.6579 9.71696 14.7166 9.76597C14.7754 9.815 14.819 9.87973 14.8423 9.95261C14.8656 10.0255 14.8677 10.1035 14.8483 10.1776C14.829 10.2516 14.7889 10.3186 14.7329 10.3707L12.7733 12.2329C12.7441 12.2886 12.7288 12.3506 12.7288 12.4136C12.7288 12.4765 12.7441 12.5385 12.7733 12.5942L13.1485 15.2348C13.1645 15.311 13.1581 15.3903 13.1299 15.463C13.1017 15.5358 13.053 15.5988 12.9898 15.6443C12.9265 15.6899 12.8514 15.7162 12.7735 15.72C12.6956 15.7238 12.6183 15.7048 12.5509 15.6655L10.1884 14.4148C10.1273 14.3872 10.0609 14.3729 9.99385 14.3729C9.92675 14.3729 9.86043 14.3872 9.79929 14.4148L7.43675 15.6655C7.36941 15.7048 7.29209 15.7238 7.21421 15.72C7.13631 15.7162 7.06118 15.6899 6.99792 15.6443C6.93466 15.5988 6.88599 15.5358 6.85782 15.463C6.82963 15.3903 6.82316 15.311 6.83918 15.2348L7.28388 12.5942C7.30301 12.5329 7.30666 12.4679 7.29455 12.4048C7.28242 12.3418 7.25489 12.2827 7.21439 12.2329L5.25488 10.3568C5.20291 10.3041 5.16642 10.2382 5.14943 10.1662C5.13245 10.0942 5.13562 10.0189 5.15858 9.94853C5.18155 9.8782 5.22342 9.81556 5.27963 9.76744C5.33585 9.71934 5.40421 9.68763 5.47723 9.6758L8.13162 9.28667C8.19769 9.27998 8.26082 9.25588 8.31453 9.21681C8.36825 9.17776 8.41063 9.12513 8.43735 9.06431L9.63252 6.6601C9.66451 6.59204 9.71488 6.53428 9.77798 6.49336C9.84106 6.45244 9.91435 6.42998 9.98954 6.42854C10.0647 6.4271 10.1388 6.44671 10.2034 6.48518C10.268 6.52364 10.3206 6.57941 10.3552 6.6462Z" stroke="#3FB4F1" stroke-linecap="round" stroke-linejoin="round"/>
</g>
<defs>
<clipPath id="clip0_774_4689">
<rect width="20" height="20" fill="white"/>
</clipPath>
</defs>
</svg>
