<svg width="20" height="20" viewBox="0 0 20 20" fill="none" xmlns="http://www.w3.org/2000/svg">
<g clip-path="url(#clip0_774_4639)">
<path d="M12.5713 3.57289C12.5713 4.25488 12.8422 4.90893 13.3244 5.39117C13.8067 5.8734 14.4607 6.14432 15.1427 6.14432C15.8247 6.14432 16.4788 5.8734 16.961 5.39117C17.4432 4.90893 17.7141 4.25488 17.7141 3.57289C17.7141 2.89091 17.4432 2.23686 16.961 1.75462C16.4788 1.27238 15.8247 1.00146 15.1427 1.00146C14.4607 1.00146 13.8067 1.27238 13.3244 1.75462C12.8422 2.23686 12.5713 2.89091 12.5713 3.57289Z" stroke="#3FB4F1" stroke-linecap="round" stroke-linejoin="round"/>
<path d="M18.9999 12.5733V11.2875C18.9999 9.15724 17.273 7.4303 15.1427 7.4303C13.69 7.4303 12.4249 8.23331 11.7671 9.41964" stroke="#3FB4F1" stroke-linecap="round" stroke-linejoin="round"/>
<path d="M2.28564 3.57289C2.28564 4.25488 2.55656 4.90893 3.0388 5.39117C3.52103 5.8734 4.17509 6.14432 4.85707 6.14432C5.53906 6.14432 6.19311 5.8734 6.67535 5.39117C7.15758 4.90893 7.4285 4.25488 7.4285 3.57289C7.4285 2.89091 7.15758 2.23686 6.67535 1.75462C6.19311 1.27238 5.53906 1.00146 4.85707 1.00146C4.17509 1.00146 3.52103 1.27238 3.0388 1.75462C2.55656 2.23686 2.28564 2.89091 2.28564 3.57289Z" stroke="#3FB4F1" stroke-linecap="round" stroke-linejoin="round"/>
<path d="M1 12.5733V11.2875C1 9.15724 2.72694 7.4303 4.85723 7.4303C6.30987 7.4303 7.57496 8.23331 8.23281 9.41964" stroke="#3FB4F1" stroke-linecap="round" stroke-linejoin="round"/>
<path d="M7.43018 11.2843C7.43018 11.9663 7.70109 12.6204 8.18333 13.1026C8.66557 13.5848 9.31962 13.8557 10.0016 13.8557C10.6836 13.8557 11.3376 13.5848 11.8199 13.1026C12.3021 12.6204 12.573 11.9663 12.573 11.2843C12.573 10.6023 12.3021 9.94828 11.8199 9.46604C11.3376 8.98381 10.6836 8.71289 10.0016 8.71289C9.31962 8.71289 8.66557 8.98381 8.18333 9.46604C7.70109 9.94828 7.43018 10.6023 7.43018 11.2843Z" stroke="#3FB4F1" stroke-linecap="round" stroke-linejoin="round"/>
<path d="M13.859 18.9985C13.859 16.8682 12.132 15.1414 10.0017 15.1414C7.87146 15.1414 6.14453 16.8682 6.14453 18.9985" stroke="#3FB4F1" stroke-linecap="round" stroke-linejoin="round"/>
</g>
<defs>
<clipPath id="clip0_774_4639">
<rect width="20" height="20" fill="white"/>
</clipPath>
</defs>
</svg>
