<svg width="20" height="20" viewBox="0 0 20 20" fill="none" xmlns="http://www.w3.org/2000/svg">
<path d="M9.99995 5.3865C11.2655 5.3865 12.2914 4.36057 12.2914 3.09505C12.2914 1.8295 11.2655 0.803589 9.99995 0.803589C8.73441 0.803589 7.7085 1.8295 7.7085 3.09505C7.7085 4.36057 8.73441 5.3865 9.99995 5.3865Z" stroke="#3FB4F1" stroke-linecap="round" stroke-linejoin="round"/>
<path d="M2.79834 9.96936H17.2017" stroke="#3FB4F1" stroke-linecap="round" stroke-linejoin="round"/>
<path d="M4.10791 9.96936L4.76261 19.1352" stroke="#3FB4F1" stroke-linecap="round" stroke-linejoin="round"/>
<path d="M15.8925 9.96936L15.2378 19.1352" stroke="#3FB4F1" stroke-linecap="round" stroke-linejoin="round"/>
<path d="M10.0001 12.2726L10.8424 13.9793L12.7258 14.2529L11.363 15.5814L11.6847 17.4573L10.0001 16.5716L8.31554 17.4573L8.63727 15.5814L7.27441 14.2529L9.15784 13.9793L10.0001 12.2726Z" stroke="#3FB4F1" stroke-linecap="round" stroke-linejoin="round"/>
<path d="M14.2858 10.0001C14.2858 7.63314 12.367 5.71436 10.0001 5.71436C7.63314 5.71436 5.71436 7.63314 5.71436 10.0001" stroke="#3FB4F1" stroke-linecap="round" stroke-linejoin="round"/>
</svg>
